<svg width="270" height="120" viewBox="0 0 270 120" fill="none" xmlns="http://www.w3.org/2000/svg">
<path fill-rule="evenodd" clip-rule="evenodd" d="M268.004 23.8834C269.101 24.0123 270 24.8954 270 26V94C270 95.1046 269.101 95.9877 268.004 96.1166C258.377 97.247 250.743 106.467 249.945 118C249.868 119.102 248.98 120 247.876 120H22.1242C21.0197 120 20.1316 119.102 20.0553 118C19.2575 106.467 11.6228 97.247 1.996 96.1166C0.898968 95.9877 0 95.1046 0 94V26C0 24.8954 0.89897 24.0123 1.996 23.8834C11.6228 22.753 19.2575 13.5326 20.0553 2.00017C20.1316 0.89823 21.0197 0 22.1242 0H247.876C248.98 0 249.868 0.898231 249.945 2.00017C250.743 13.5326 258.377 22.753 268.004 23.8834Z" fill="#FFC123"/>
<mask id="path-2-inside-1_1004_21" fill="white">
<path fill-rule="evenodd" clip-rule="evenodd" d="M262.134 27.6873C263.232 27.8134 264.13 28.6967 264.13 29.8013V90.1987C264.13 91.3033 263.232 92.1867 262.134 92.3127C253.03 93.3587 245.807 101.482 244.964 111.666C244.872 112.767 243.986 113.665 242.881 113.665H27.1189C26.0143 113.665 25.1277 112.767 25.0365 111.666C24.1933 101.482 16.9705 93.3588 7.86565 92.3127C6.7683 92.1867 5.86963 91.3033 5.86963 90.1987V29.8013C5.86963 28.6967 6.7683 27.8134 7.86565 27.6873C17.5588 26.5737 25.1189 17.4391 25.1189 6.33547V6.33547C25.1189 6.33546 25.1189 6.33545 25.1189 6.33545H244.881C244.881 6.33545 244.881 6.33546 244.881 6.33547V6.33547C244.881 17.4391 252.441 26.5737 262.134 27.6873Z"/>
</mask>
<path d="M25.6189 6.33547C25.6189 6.05933 25.395 5.83547 25.1189 5.83547C24.8427 5.83547 24.6189 6.05933 24.6189 6.33547H25.6189ZM245.381 6.33547C245.381 6.05933 245.157 5.83547 244.881 5.83547C244.605 5.83547 244.381 6.05933 244.381 6.33547H245.381ZM244.381 6.33547C244.381 6.61161 244.605 6.83547 244.881 6.83547C245.157 6.83547 245.381 6.61161 245.381 6.33547H244.381ZM24.6189 6.33547C24.6189 6.61161 24.8427 6.83547 25.1189 6.83547C25.395 6.83547 25.6189 6.61161 25.6189 6.33547H24.6189ZM7.86565 27.6873L7.80858 27.1906L7.86565 27.6873ZM7.86565 92.3127L7.80859 92.8095L7.86565 92.3127ZM25.0365 111.666L24.5382 111.707L25.0365 111.666ZM244.964 111.666L245.462 111.707L244.964 111.666ZM262.134 27.6873L262.077 28.184L262.134 27.6873ZM262.134 92.3127L262.077 91.816L262.134 92.3127ZM24.5735 7.80516C24.5565 8.08077 24.7661 8.31804 25.0417 8.33511C25.3173 8.35217 25.5545 8.14258 25.5716 7.86697L24.5735 7.80516ZM25.1911 10.9045C25.2427 10.6332 25.0646 10.3715 24.7933 10.3199C24.522 10.2683 24.2603 10.4464 24.2087 10.7177L25.1911 10.9045ZM23.4763 13.5585C23.3902 13.8209 23.5331 14.1034 23.7955 14.1895C24.0578 14.2756 24.3403 14.1327 24.4265 13.8704L23.4763 13.5585ZM23.2809 16.7126C23.4009 16.4639 23.2966 16.165 23.0479 16.0449C22.7992 15.9249 22.5003 16.0292 22.3803 16.2779L23.2809 16.7126ZM20.9306 18.8237C20.7778 19.0537 20.8404 19.364 21.0704 19.5168C21.3005 19.6696 21.6108 19.607 21.7636 19.377L20.9306 18.8237ZM19.8898 21.807C20.0736 21.6009 20.0556 21.2848 19.8495 21.101C19.6434 20.9172 19.3274 20.9352 19.1435 21.1413L19.8898 21.807ZM17.0417 23.1735C16.8293 23.35 16.8002 23.6652 16.9767 23.8776C17.1532 24.09 17.4685 24.1191 17.6809 23.9426L17.0417 23.1735ZM15.1698 25.7187C15.4072 25.5775 15.4852 25.2707 15.344 25.0334C15.2029 24.796 14.8961 24.718 14.6587 24.8592L15.1698 25.7187ZM12.0402 26.1392C11.7829 26.2394 11.6556 26.5293 11.7559 26.7866C11.8561 27.0439 12.146 27.1712 12.4033 27.0709L12.0402 26.1392ZM9.44717 27.9418C9.71777 27.8868 9.89249 27.6228 9.83743 27.3522C9.78236 27.0816 9.51836 26.9068 9.24777 26.9619L9.44717 27.9418ZM6.88776 27.4582C6.63929 27.5787 6.53554 27.8778 6.65603 28.1262C6.77652 28.3747 7.07562 28.4785 7.32409 28.358L6.88776 27.4582ZM6.48641 29.2206C6.59323 28.9659 6.4734 28.6729 6.21876 28.5661C5.96412 28.4592 5.67109 28.5791 5.56426 28.8337L6.48641 29.2206ZM5.36963 31.3112C5.36963 31.5874 5.59349 31.8112 5.86963 31.8112C6.14577 31.8112 6.36963 31.5874 6.36963 31.3112H5.36963ZM6.36963 34.3311C6.36963 34.055 6.14577 33.8311 5.86963 33.8311C5.59349 33.8311 5.36963 34.055 5.36963 34.3311H6.36963ZM5.36963 37.351C5.36963 37.6271 5.59349 37.851 5.86963 37.851C6.14577 37.851 6.36963 37.6271 6.36963 37.351H5.36963ZM6.36963 40.3709C6.36963 40.0947 6.14577 39.8709 5.86963 39.8709C5.59349 39.8709 5.36963 40.0947 5.36963 40.3709H6.36963ZM5.36963 43.3907C5.36963 43.6669 5.59349 43.8907 5.86963 43.8907C6.14577 43.8907 6.36963 43.6669 6.36963 43.3907H5.36963ZM6.36963 46.4106C6.36963 46.1345 6.14577 45.9106 5.86963 45.9106C5.59349 45.9106 5.36963 46.1345 5.36963 46.4106H6.36963ZM5.36963 49.4305C5.36963 49.7066 5.59349 49.9305 5.86963 49.9305C6.14577 49.9305 6.36963 49.7066 6.36963 49.4305H5.36963ZM6.36963 52.4503C6.36963 52.1742 6.14577 51.9503 5.86963 51.9503C5.59349 51.9503 5.36963 52.1742 5.36963 52.4503H6.36963ZM5.36963 55.4702C5.36963 55.7464 5.59349 55.9702 5.86963 55.9702C6.14577 55.9702 6.36963 55.7464 6.36963 55.4702H5.36963ZM6.36963 58.4901C6.36963 58.2139 6.14577 57.9901 5.86963 57.9901C5.59349 57.9901 5.36963 58.2139 5.36963 58.4901H6.36963ZM5.36963 61.5099C5.36963 61.7861 5.59349 62.0099 5.86963 62.0099C6.14577 62.0099 6.36963 61.7861 6.36963 61.5099H5.36963ZM6.36963 64.5298C6.36963 64.2537 6.14577 64.0298 5.86963 64.0298C5.59349 64.0298 5.36963 64.2537 5.36963 64.5298H6.36963ZM5.36963 67.5497C5.36963 67.8258 5.59349 68.0497 5.86963 68.0497C6.14577 68.0497 6.36963 67.8258 6.36963 67.5497H5.36963ZM6.36963 70.5696C6.36963 70.2934 6.14577 70.0696 5.86963 70.0696C5.59349 70.0696 5.36963 70.2934 5.36963 70.5696H6.36963ZM5.36963 73.5894C5.36963 73.8656 5.59349 74.0894 5.86963 74.0894C6.14577 74.0894 6.36963 73.8656 6.36963 73.5894H5.36963ZM6.36963 76.6093C6.36963 76.3332 6.14577 76.1093 5.86963 76.1093C5.59349 76.1093 5.36963 76.3332 5.36963 76.6093H6.36963ZM5.36963 79.6292C5.36963 79.9053 5.59349 80.1292 5.86963 80.1292C6.14577 80.1292 6.36963 79.9053 6.36963 79.6292H5.36963ZM6.36963 82.649C6.36963 82.3729 6.14577 82.149 5.86963 82.149C5.59349 82.149 5.36963 82.3729 5.36963 82.649H6.36963ZM5.36963 85.6689C5.36963 85.9451 5.59349 86.1689 5.86963 86.1689C6.14577 86.1689 6.36963 85.9451 6.36963 85.6689H5.36963ZM6.36963 88.6888C6.36963 88.4126 6.14577 88.1888 5.86963 88.1888C5.59349 88.1888 5.36963 88.4126 5.36963 88.6888H6.36963ZM5.56427 91.1663C5.67109 91.421 5.96412 91.5408 6.21876 91.434C6.4734 91.3271 6.59323 91.0341 6.48641 90.7795L5.56427 91.1663ZM7.32409 91.6421C7.07562 91.5216 6.77652 91.6253 6.65603 91.8738C6.53554 92.1223 6.63929 92.4214 6.88776 92.5419L7.32409 91.6421ZM9.15244 93.019C9.42335 93.0725 9.68634 92.8963 9.73985 92.6254C9.79335 92.3545 9.61711 92.0915 9.3462 92.038L9.15244 93.019ZM12.1148 92.8195C11.8559 92.7236 11.5682 92.8558 11.4723 93.1147C11.3764 93.3737 11.5086 93.6613 11.7675 93.7572L12.1148 92.8195ZM14.2371 94.8977C14.4781 95.0324 14.7827 94.9462 14.9174 94.7051C15.0521 94.4641 14.9659 94.1595 14.7248 94.0248L14.2371 94.8977ZM17.1203 95.6084C16.9018 95.4396 16.5878 95.48 16.419 95.6985C16.2502 95.9171 16.2906 96.2311 16.5092 96.3999L17.1203 95.6084ZM18.5445 98.2161C18.7372 98.4139 19.0537 98.418 19.2515 98.2253C19.4493 98.0326 19.4534 97.7161 19.2608 97.5183L18.5445 98.2161ZM21.1167 99.7014C20.9523 99.4796 20.6392 99.433 20.4173 99.5974C20.1954 99.7618 20.1489 100.075 20.3133 100.297L21.1167 99.7014ZM21.7945 102.594C21.9289 102.835 22.2335 102.922 22.4747 102.788C22.7159 102.653 22.8025 102.349 22.6681 102.107L21.7945 102.594ZM23.9007 104.689C23.7975 104.433 23.5062 104.309 23.25 104.412C22.9939 104.516 22.8699 104.807 22.9731 105.063L23.9007 104.689ZM23.8386 107.66C23.9098 107.927 24.1838 108.086 24.4506 108.014C24.7174 107.943 24.876 107.669 24.8048 107.402L23.8386 107.66ZM25.3751 110.203C25.3361 109.93 25.083 109.74 24.8096 109.779C24.5362 109.817 24.3461 110.071 24.385 110.344L25.3751 110.203ZM24.7848 112.639C24.9012 112.889 25.1986 112.998 25.449 112.881C25.6994 112.765 25.808 112.468 25.6916 112.217L24.7848 112.639ZM26.54 113.049C26.2852 112.942 25.9923 113.062 25.8857 113.317C25.7791 113.572 25.8992 113.864 26.1539 113.971L26.54 113.049ZM28.6172 114.165C28.8934 114.165 29.1172 113.941 29.1172 113.665C29.1172 113.388 28.8934 113.165 28.6172 113.165V114.165ZM31.6139 113.165C31.3378 113.165 31.1139 113.388 31.1139 113.665C31.1139 113.941 31.3378 114.165 31.6139 114.165V113.165ZM34.6106 114.165C34.8868 114.165 35.1106 113.941 35.1106 113.665C35.1106 113.388 34.8868 113.165 34.6106 113.165V114.165ZM37.6073 113.165C37.3312 113.165 37.1073 113.388 37.1073 113.665C37.1073 113.941 37.3312 114.165 37.6073 114.165V113.165ZM40.604 114.165C40.8802 114.165 41.104 113.941 41.104 113.665C41.104 113.388 40.8802 113.165 40.604 113.165V114.165ZM43.6007 113.165C43.3246 113.165 43.1007 113.388 43.1007 113.665C43.1007 113.941 43.3246 114.165 43.6007 114.165V113.165ZM46.5974 114.165C46.8736 114.165 47.0974 113.941 47.0974 113.665C47.0974 113.388 46.8736 113.165 46.5974 113.165V114.165ZM49.5941 113.165C49.318 113.165 49.0941 113.388 49.0941 113.665C49.0941 113.941 49.318 114.165 49.5941 114.165V113.165ZM52.5908 114.165C52.867 114.165 53.0908 113.941 53.0908 113.665C53.0908 113.388 52.867 113.165 52.5908 113.165V114.165ZM55.5875 113.165C55.3114 113.165 55.0875 113.388 55.0875 113.665C55.0875 113.941 55.3114 114.165 55.5875 114.165V113.165ZM58.5842 114.165C58.8604 114.165 59.0842 113.941 59.0842 113.665C59.0842 113.388 58.8604 113.165 58.5842 113.165V114.165ZM61.5809 113.165C61.3048 113.165 61.0809 113.388 61.0809 113.665C61.0809 113.941 61.3048 114.165 61.5809 114.165V113.165ZM64.5776 114.165C64.8538 114.165 65.0776 113.941 65.0776 113.665C65.0776 113.388 64.8538 113.165 64.5776 113.165V114.165ZM67.5743 113.165C67.2982 113.165 67.0743 113.388 67.0743 113.665C67.0743 113.941 67.2982 114.165 67.5743 114.165V113.165ZM70.571 114.165C70.8472 114.165 71.071 113.941 71.071 113.665C71.071 113.388 70.8472 113.165 70.571 113.165V114.165ZM73.5677 113.165C73.2916 113.165 73.0677 113.388 73.0677 113.665C73.0677 113.941 73.2916 114.165 73.5677 114.165V113.165ZM76.5644 114.165C76.8406 114.165 77.0644 113.941 77.0644 113.665C77.0644 113.388 76.8406 113.165 76.5644 113.165V114.165ZM79.5611 113.165C79.285 113.165 79.0611 113.388 79.0611 113.665C79.0611 113.941 79.285 114.165 79.5611 114.165V113.165ZM82.5578 114.165C82.834 114.165 83.0578 113.941 83.0578 113.665C83.0578 113.388 82.834 113.165 82.5578 113.165V114.165ZM85.5545 113.165C85.2784 113.165 85.0545 113.388 85.0545 113.665C85.0545 113.941 85.2784 114.165 85.5545 114.165V113.165ZM88.5512 114.165C88.8274 114.165 89.0512 113.941 89.0512 113.665C89.0512 113.388 88.8274 113.165 88.5512 113.165V114.165ZM91.5479 113.165C91.2718 113.165 91.0479 113.388 91.0479 113.665C91.0479 113.941 91.2718 114.165 91.5479 114.165V113.165ZM94.5446 114.165C94.8208 114.165 95.0446 113.941 95.0446 113.665C95.0446 113.388 94.8208 113.165 94.5446 113.165V114.165ZM97.5413 113.165C97.2652 113.165 97.0413 113.388 97.0413 113.665C97.0413 113.941 97.2652 114.165 97.5413 114.165V113.165ZM100.538 114.165C100.814 114.165 101.038 113.941 101.038 113.665C101.038 113.388 100.814 113.165 100.538 113.165V114.165ZM103.535 113.165C103.259 113.165 103.035 113.388 103.035 113.665C103.035 113.941 103.259 114.165 103.535 114.165V113.165ZM106.531 114.165C106.808 114.165 107.031 113.941 107.031 113.665C107.031 113.388 106.808 113.165 106.531 113.165V114.165ZM109.528 113.165C109.252 113.165 109.028 113.388 109.028 113.665C109.028 113.941 109.252 114.165 109.528 114.165V113.165ZM112.525 114.165C112.801 114.165 113.025 113.941 113.025 113.665C113.025 113.388 112.801 113.165 112.525 113.165V114.165ZM115.521 113.165C115.245 113.165 115.021 113.388 115.021 113.665C115.021 113.941 115.245 114.165 115.521 114.165V113.165ZM118.518 114.165C118.794 114.165 119.018 113.941 119.018 113.665C119.018 113.388 118.794 113.165 118.518 113.165V114.165ZM121.515 113.165C121.239 113.165 121.015 113.388 121.015 113.665C121.015 113.941 121.239 114.165 121.515 114.165V113.165ZM124.512 114.165C124.788 114.165 125.012 113.941 125.012 113.665C125.012 113.388 124.788 113.165 124.512 113.165V114.165ZM127.508 113.165C127.232 113.165 127.008 113.388 127.008 113.665C127.008 113.941 127.232 114.165 127.508 114.165V113.165ZM130.505 114.165C130.781 114.165 131.005 113.941 131.005 113.665C131.005 113.388 130.781 113.165 130.505 113.165V114.165ZM133.502 113.165C133.226 113.165 133.002 113.388 133.002 113.665C133.002 113.941 133.226 114.165 133.502 114.165V113.165ZM136.498 114.165C136.775 114.165 136.998 113.941 136.998 113.665C136.998 113.388 136.775 113.165 136.498 113.165V114.165ZM139.495 113.165C139.219 113.165 138.995 113.388 138.995 113.665C138.995 113.941 139.219 114.165 139.495 114.165V113.165ZM142.492 114.165C142.768 114.165 142.992 113.941 142.992 113.665C142.992 113.388 142.768 113.165 142.492 113.165V114.165ZM145.488 113.165C145.212 113.165 144.988 113.388 144.988 113.665C144.988 113.941 145.212 114.165 145.488 114.165V113.165ZM148.485 114.165C148.761 114.165 148.985 113.941 148.985 113.665C148.985 113.388 148.761 113.165 148.485 113.165V114.165ZM151.482 113.165C151.206 113.165 150.982 113.388 150.982 113.665C150.982 113.941 151.206 114.165 151.482 114.165V113.165ZM154.479 114.165C154.755 114.165 154.979 113.941 154.979 113.665C154.979 113.388 154.755 113.165 154.479 113.165V114.165ZM157.475 113.165C157.199 113.165 156.975 113.388 156.975 113.665C156.975 113.941 157.199 114.165 157.475 114.165V113.165ZM160.472 114.165C160.748 114.165 160.972 113.941 160.972 113.665C160.972 113.388 160.748 113.165 160.472 113.165V114.165ZM163.469 113.165C163.193 113.165 162.969 113.388 162.969 113.665C162.969 113.941 163.193 114.165 163.469 114.165V113.165ZM166.465 114.165C166.741 114.165 166.965 113.941 166.965 113.665C166.965 113.388 166.741 113.165 166.465 113.165V114.165ZM169.462 113.165C169.186 113.165 168.962 113.388 168.962 113.665C168.962 113.941 169.186 114.165 169.462 114.165V113.165ZM172.459 114.165C172.735 114.165 172.959 113.941 172.959 113.665C172.959 113.388 172.735 113.165 172.459 113.165V114.165ZM175.455 113.165C175.179 113.165 174.955 113.388 174.955 113.665C174.955 113.941 175.179 114.165 175.455 114.165V113.165ZM178.452 114.165C178.728 114.165 178.952 113.941 178.952 113.665C178.952 113.388 178.728 113.165 178.452 113.165V114.165ZM181.449 113.165C181.173 113.165 180.949 113.388 180.949 113.665C180.949 113.941 181.173 114.165 181.449 114.165V113.165ZM184.446 114.165C184.722 114.165 184.946 113.941 184.946 113.665C184.946 113.388 184.722 113.165 184.446 113.165V114.165ZM187.442 113.165C187.166 113.165 186.942 113.388 186.942 113.665C186.942 113.941 187.166 114.165 187.442 114.165V113.165ZM190.439 114.165C190.715 114.165 190.939 113.941 190.939 113.665C190.939 113.388 190.715 113.165 190.439 113.165V114.165ZM193.436 113.165C193.16 113.165 192.936 113.388 192.936 113.665C192.936 113.941 193.16 114.165 193.436 114.165V113.165ZM196.432 114.165C196.709 114.165 196.932 113.941 196.932 113.665C196.932 113.388 196.709 113.165 196.432 113.165V114.165ZM199.429 113.165C199.153 113.165 198.929 113.388 198.929 113.665C198.929 113.941 199.153 114.165 199.429 114.165V113.165ZM202.426 114.165C202.702 114.165 202.926 113.941 202.926 113.665C202.926 113.388 202.702 113.165 202.426 113.165V114.165ZM205.423 113.165C205.146 113.165 204.923 113.388 204.923 113.665C204.923 113.941 205.146 114.165 205.423 114.165V113.165ZM208.419 114.165C208.695 114.165 208.919 113.941 208.919 113.665C208.919 113.388 208.695 113.165 208.419 113.165V114.165ZM211.416 113.165C211.14 113.165 210.916 113.388 210.916 113.665C210.916 113.941 211.14 114.165 211.416 114.165V113.165ZM214.413 114.165C214.689 114.165 214.913 113.941 214.913 113.665C214.913 113.388 214.689 113.165 214.413 113.165V114.165ZM217.409 113.165C217.133 113.165 216.909 113.388 216.909 113.665C216.909 113.941 217.133 114.165 217.409 114.165V113.165ZM220.406 114.165C220.682 114.165 220.906 113.941 220.906 113.665C220.906 113.388 220.682 113.165 220.406 113.165V114.165ZM223.403 113.165C223.127 113.165 222.903 113.388 222.903 113.665C222.903 113.941 223.127 114.165 223.403 114.165V113.165ZM226.399 114.165C226.676 114.165 226.899 113.941 226.899 113.665C226.899 113.388 226.676 113.165 226.399 113.165V114.165ZM229.396 113.165C229.12 113.165 228.896 113.388 228.896 113.665C228.896 113.941 229.12 114.165 229.396 114.165V113.165ZM232.393 114.165C232.669 114.165 232.893 113.941 232.893 113.665C232.893 113.388 232.669 113.165 232.393 113.165V114.165ZM235.39 113.165C235.113 113.165 234.89 113.388 234.89 113.665C234.89 113.941 235.113 114.165 235.39 114.165V113.165ZM238.386 114.165C238.662 114.165 238.886 113.941 238.886 113.665C238.886 113.388 238.662 113.165 238.386 113.165V114.165ZM241.383 113.165C241.107 113.165 240.883 113.388 240.883 113.665C240.883 113.941 241.107 114.165 241.383 114.165V113.165ZM243.846 113.971C244.101 113.864 244.221 113.572 244.114 113.317C244.008 113.062 243.715 112.942 243.46 113.049L243.846 113.971ZM244.309 112.217C244.192 112.468 244.301 112.765 244.551 112.881C244.802 112.998 245.099 112.889 245.215 112.639L244.309 112.217ZM245.615 110.344C245.654 110.071 245.464 109.817 245.191 109.779C244.917 109.74 244.664 109.93 244.625 110.203L245.615 110.344ZM245.195 107.402C245.124 107.669 245.283 107.943 245.549 108.014C245.816 108.086 246.09 107.927 246.162 107.66L245.195 107.402ZM247.027 105.063C247.13 104.807 247.006 104.516 246.75 104.412C246.494 104.309 246.203 104.433 246.099 104.689L247.027 105.063ZM247.332 102.107C247.198 102.349 247.284 102.653 247.525 102.788C247.767 102.922 248.071 102.835 248.206 102.594L247.332 102.107ZM249.687 100.297C249.851 100.075 249.805 99.7618 249.583 99.5974C249.361 99.433 249.048 99.4796 248.883 99.7014L249.687 100.297ZM250.739 97.5183C250.547 97.7161 250.551 98.0326 250.749 98.2253C250.946 98.418 251.263 98.4139 251.456 98.2161L250.739 97.5183ZM253.491 96.3999C253.71 96.2311 253.75 95.9171 253.581 95.6985C253.412 95.48 253.098 95.4396 252.88 95.6083L253.491 96.3999ZM255.275 94.0248C255.034 94.1594 254.948 94.4641 255.083 94.7051C255.217 94.9462 255.522 95.0324 255.763 94.8977L255.275 94.0248ZM258.233 93.7572C258.492 93.6613 258.624 93.3737 258.528 93.1147C258.432 92.8557 258.144 92.7236 257.885 92.8195L258.233 93.7572ZM260.654 92.038C260.383 92.0915 260.207 92.3545 260.26 92.6254C260.314 92.8963 260.577 93.0725 260.848 93.019L260.654 92.038ZM263.112 92.5419C263.361 92.4214 263.465 92.1223 263.344 91.8738C263.224 91.6253 262.925 91.5216 262.676 91.6421L263.112 92.5419ZM263.514 90.7795C263.407 91.0341 263.527 91.3271 263.781 91.434C264.036 91.5408 264.329 91.421 264.436 91.1663L263.514 90.7795ZM264.63 88.6888C264.63 88.4127 264.407 88.1888 264.13 88.1888C263.854 88.1888 263.63 88.4127 263.63 88.6888H264.63ZM263.63 85.6689C263.63 85.9451 263.854 86.1689 264.13 86.1689C264.407 86.1689 264.63 85.9451 264.63 85.6689H263.63ZM264.63 82.6491C264.63 82.3729 264.407 82.1491 264.13 82.1491C263.854 82.1491 263.63 82.3729 263.63 82.6491H264.63ZM263.63 79.6292C263.63 79.9053 263.854 80.1292 264.13 80.1292C264.407 80.1292 264.63 79.9053 264.63 79.6292H263.63ZM264.63 76.6093C264.63 76.3332 264.407 76.1093 264.13 76.1093C263.854 76.1093 263.63 76.3332 263.63 76.6093H264.63ZM263.63 73.5894C263.63 73.8656 263.854 74.0894 264.13 74.0894C264.407 74.0894 264.63 73.8656 264.63 73.5894H263.63ZM264.63 70.5696C264.63 70.2934 264.407 70.0696 264.13 70.0696C263.854 70.0696 263.63 70.2934 263.63 70.5696H264.63ZM263.63 67.5497C263.63 67.8258 263.854 68.0497 264.13 68.0497C264.407 68.0497 264.63 67.8258 264.63 67.5497H263.63ZM264.63 64.5298C264.63 64.2537 264.407 64.0298 264.13 64.0298C263.854 64.0298 263.63 64.2537 263.63 64.5298H264.63ZM263.63 61.51C263.63 61.7861 263.854 62.01 264.13 62.01C264.407 62.01 264.63 61.7861 264.63 61.51H263.63ZM264.63 58.4901C264.63 58.2139 264.407 57.9901 264.13 57.9901C263.854 57.9901 263.63 58.2139 263.63 58.4901H264.63ZM263.63 55.4702C263.63 55.7464 263.854 55.9702 264.13 55.9702C264.407 55.9702 264.63 55.7464 264.63 55.4702H263.63ZM264.63 52.4503C264.63 52.1742 264.407 51.9503 264.13 51.9503C263.854 51.9503 263.63 52.1742 263.63 52.4503H264.63ZM263.63 49.4305C263.63 49.7066 263.854 49.9305 264.13 49.9305C264.407 49.9305 264.63 49.7066 264.63 49.4305H263.63ZM264.63 46.4106C264.63 46.1345 264.407 45.9106 264.13 45.9106C263.854 45.9106 263.63 46.1345 263.63 46.4106H264.63ZM263.63 43.3907C263.63 43.6669 263.854 43.8907 264.13 43.8907C264.407 43.8907 264.63 43.6669 264.63 43.3907H263.63ZM264.63 40.3709C264.63 40.0947 264.407 39.8709 264.13 39.8709C263.854 39.8709 263.63 40.0947 263.63 40.3709H264.63ZM263.63 37.351C263.63 37.6271 263.854 37.851 264.13 37.851C264.407 37.851 264.63 37.6271 264.63 37.351H263.63ZM264.63 34.3311C264.63 34.055 264.407 33.8311 264.13 33.8311C263.854 33.8311 263.63 34.055 263.63 34.3311H264.63ZM263.63 31.3112C263.63 31.5874 263.854 31.8112 264.13 31.8112C264.407 31.8112 264.63 31.5874 264.63 31.3112H263.63ZM264.436 28.8337C264.329 28.5791 264.036 28.4592 263.781 28.5661C263.527 28.6729 263.407 28.9659 263.514 29.2206L264.436 28.8337ZM262.676 28.358C262.925 28.4785 263.224 28.3747 263.344 28.1262C263.465 27.8778 263.361 27.5787 263.112 27.4582L262.676 28.358ZM260.752 26.9619C260.482 26.9068 260.218 27.0816 260.163 27.3522C260.108 27.6228 260.282 27.8868 260.553 27.9418L260.752 26.9619ZM257.597 27.0709C257.854 27.1712 258.144 27.0439 258.244 26.7866C258.345 26.5293 258.217 26.2395 257.96 26.1392L257.597 27.0709ZM255.341 24.8592C255.104 24.718 254.797 24.796 254.656 25.0334C254.515 25.2707 254.593 25.5775 254.83 25.7187L255.341 24.8592ZM252.319 23.9426C252.532 24.1191 252.847 24.09 253.023 23.8776C253.2 23.6652 253.171 23.35 252.958 23.1735L252.319 23.9426ZM250.857 21.1413C250.673 20.9352 250.357 20.9172 250.151 21.101C249.945 21.2848 249.927 21.6009 250.11 21.807L250.857 21.1413ZM248.237 19.377C248.389 19.607 248.7 19.6696 248.93 19.5168C249.16 19.364 249.222 19.0537 249.069 18.8237L248.237 19.377ZM247.62 16.2779C247.5 16.0292 247.201 15.9249 246.952 16.0449C246.703 16.165 246.599 16.4639 246.719 16.7126L247.62 16.2779ZM245.574 13.8704C245.66 14.1327 245.942 14.2756 246.205 14.1895C246.467 14.1034 246.61 13.8209 246.524 13.5585L245.574 13.8704ZM245.791 10.7177C245.74 10.4464 245.478 10.2683 245.207 10.3199C244.936 10.3715 244.757 10.6332 244.809 10.9045L245.791 10.7177ZM244.428 7.86697C244.446 8.14258 244.683 8.35218 244.958 8.33511C245.234 8.31804 245.444 8.08078 245.427 7.80516L244.428 7.86697ZM245.343 6.14393C245.237 5.88885 244.945 5.76782 244.69 5.8736C244.435 5.97938 244.314 6.27191 244.419 6.52699L245.343 6.14393ZM244.69 6.79731C244.945 6.90309 245.237 6.78206 245.343 6.52698C245.449 6.2719 245.328 5.97937 245.073 5.87359L244.69 6.79731ZM243.396 5.83545C243.12 5.83545 242.896 6.05931 242.896 6.33545C242.896 6.61159 243.12 6.83545 243.396 6.83545V5.83545ZM240.427 6.83545C240.703 6.83545 240.927 6.61159 240.927 6.33545C240.927 6.05931 240.703 5.83545 240.427 5.83545V6.83545ZM237.457 5.83545C237.181 5.83545 236.957 6.05931 236.957 6.33545C236.957 6.61159 237.181 6.83545 237.457 6.83545V5.83545ZM234.487 6.83545C234.763 6.83545 234.987 6.61159 234.987 6.33545C234.987 6.05931 234.763 5.83545 234.487 5.83545V6.83545ZM231.517 5.83545C231.241 5.83545 231.017 6.05931 231.017 6.33545C231.017 6.61159 231.241 6.83545 231.517 6.83545V5.83545ZM228.548 6.83545C228.824 6.83545 229.048 6.61159 229.048 6.33545C229.048 6.05931 228.824 5.83545 228.548 5.83545V6.83545ZM225.578 5.83545C225.302 5.83545 225.078 6.05931 225.078 6.33545C225.078 6.61159 225.302 6.83545 225.578 6.83545V5.83545ZM222.608 6.83545C222.884 6.83545 223.108 6.61159 223.108 6.33545C223.108 6.05931 222.884 5.83545 222.608 5.83545V6.83545ZM219.638 5.83545C219.362 5.83545 219.138 6.05931 219.138 6.33545C219.138 6.61159 219.362 6.83545 219.638 6.83545V5.83545ZM216.668 6.83545C216.945 6.83545 217.168 6.61159 217.168 6.33545C217.168 6.05931 216.945 5.83545 216.668 5.83545V6.83545ZM213.699 5.83545C213.423 5.83545 213.199 6.05931 213.199 6.33545C213.199 6.61159 213.423 6.83545 213.699 6.83545V5.83545ZM210.729 6.83545C211.005 6.83545 211.229 6.61159 211.229 6.33545C211.229 6.05931 211.005 5.83545 210.729 5.83545V6.83545ZM207.759 5.83545C207.483 5.83545 207.259 6.05931 207.259 6.33545C207.259 6.61159 207.483 6.83545 207.759 6.83545V5.83545ZM204.789 6.83545C205.066 6.83545 205.289 6.61159 205.289 6.33545C205.289 6.05931 205.066 5.83545 204.789 5.83545V6.83545ZM201.82 5.83545C201.544 5.83545 201.32 6.05931 201.32 6.33545C201.32 6.61159 201.544 6.83545 201.82 6.83545V5.83545ZM198.85 6.83545C199.126 6.83545 199.35 6.61159 199.35 6.33545C199.35 6.05931 199.126 5.83545 198.85 5.83545V6.83545ZM195.88 5.83545C195.604 5.83545 195.38 6.05931 195.38 6.33545C195.38 6.61159 195.604 6.83545 195.88 6.83545V5.83545ZM192.91 6.83545C193.187 6.83545 193.41 6.61159 193.41 6.33545C193.41 6.05931 193.187 5.83545 192.91 5.83545V6.83545ZM189.941 5.83545C189.664 5.83545 189.441 6.05931 189.441 6.33545C189.441 6.61159 189.664 6.83545 189.941 6.83545V5.83545ZM186.971 6.83545C187.247 6.83545 187.471 6.61159 187.471 6.33545C187.471 6.05931 187.247 5.83545 186.971 5.83545V6.83545ZM184.001 5.83545C183.725 5.83545 183.501 6.05931 183.501 6.33545C183.501 6.61159 183.725 6.83545 184.001 6.83545V5.83545ZM181.031 6.83545C181.307 6.83545 181.531 6.61159 181.531 6.33545C181.531 6.05931 181.307 5.83545 181.031 5.83545V6.83545ZM178.062 5.83545C177.785 5.83545 177.562 6.05931 177.562 6.33545C177.562 6.61159 177.785 6.83545 178.062 6.83545V5.83545ZM175.092 6.83545C175.368 6.83545 175.592 6.61159 175.592 6.33545C175.592 6.05931 175.368 5.83545 175.092 5.83545V6.83545ZM172.122 5.83545C171.846 5.83545 171.622 6.05931 171.622 6.33545C171.622 6.61159 171.846 6.83545 172.122 6.83545V5.83545ZM169.152 6.83545C169.428 6.83545 169.652 6.61159 169.652 6.33545C169.652 6.05931 169.428 5.83545 169.152 5.83545V6.83545ZM166.183 5.83545C165.906 5.83545 165.683 6.05931 165.683 6.33545C165.683 6.61159 165.906 6.83545 166.183 6.83545V5.83545ZM163.213 6.83545C163.489 6.83545 163.713 6.61159 163.713 6.33545C163.713 6.05931 163.489 5.83545 163.213 5.83545V6.83545ZM160.243 5.83545C159.967 5.83545 159.743 6.05931 159.743 6.33545C159.743 6.61159 159.967 6.83545 160.243 6.83545V5.83545ZM157.273 6.83545C157.549 6.83545 157.773 6.61159 157.773 6.33545C157.773 6.05931 157.549 5.83545 157.273 5.83545V6.83545ZM154.303 5.83545C154.027 5.83545 153.803 6.05931 153.803 6.33545C153.803 6.61159 154.027 6.83545 154.303 6.83545V5.83545ZM151.334 6.83545C151.61 6.83545 151.834 6.61159 151.834 6.33545C151.834 6.05931 151.61 5.83545 151.334 5.83545V6.83545ZM148.364 5.83545C148.088 5.83545 147.864 6.05931 147.864 6.33545C147.864 6.61159 148.088 6.83545 148.364 6.83545V5.83545ZM145.394 6.83545C145.67 6.83545 145.894 6.61159 145.894 6.33545C145.894 6.05931 145.67 5.83545 145.394 5.83545V6.83545ZM142.424 5.83545C142.148 5.83545 141.924 6.05931 141.924 6.33545C141.924 6.61159 142.148 6.83545 142.424 6.83545V5.83545ZM139.455 6.83545C139.731 6.83545 139.955 6.61159 139.955 6.33545C139.955 6.05931 139.731 5.83545 139.455 5.83545V6.83545ZM136.485 5.83545C136.209 5.83545 135.985 6.05931 135.985 6.33545C135.985 6.61159 136.209 6.83545 136.485 6.83545V5.83545ZM133.515 6.83545C133.791 6.83545 134.015 6.61159 134.015 6.33545C134.015 6.05931 133.791 5.83545 133.515 5.83545V6.83545ZM130.545 5.83545C130.269 5.83545 130.045 6.05931 130.045 6.33545C130.045 6.61159 130.269 6.83545 130.545 6.83545V5.83545ZM127.576 6.83545C127.852 6.83545 128.076 6.61159 128.076 6.33545C128.076 6.05931 127.852 5.83545 127.576 5.83545V6.83545ZM124.606 5.83545C124.33 5.83545 124.106 6.05931 124.106 6.33545C124.106 6.61159 124.33 6.83545 124.606 6.83545V5.83545ZM121.636 6.83545C121.912 6.83545 122.136 6.61159 122.136 6.33545C122.136 6.05931 121.912 5.83545 121.636 5.83545V6.83545ZM118.666 5.83545C118.39 5.83545 118.166 6.05931 118.166 6.33545C118.166 6.61159 118.39 6.83545 118.666 6.83545V5.83545ZM115.697 6.83545C115.973 6.83545 116.197 6.61159 116.197 6.33545C116.197 6.05931 115.973 5.83545 115.697 5.83545V6.83545ZM112.727 5.83545C112.451 5.83545 112.227 6.05931 112.227 6.33545C112.227 6.61159 112.451 6.83545 112.727 6.83545V5.83545ZM109.757 6.83545C110.033 6.83545 110.257 6.61159 110.257 6.33545C110.257 6.05931 110.033 5.83545 109.757 5.83545V6.83545ZM106.787 5.83545C106.511 5.83545 106.287 6.05931 106.287 6.33545C106.287 6.61159 106.511 6.83545 106.787 6.83545V5.83545ZM103.818 6.83545C104.094 6.83545 104.318 6.61159 104.318 6.33545C104.318 6.05931 104.094 5.83545 103.818 5.83545V6.83545ZM100.848 5.83545C100.572 5.83545 100.348 6.05931 100.348 6.33545C100.348 6.61159 100.572 6.83545 100.848 6.83545V5.83545ZM97.878 6.83545C98.1541 6.83545 98.378 6.61159 98.378 6.33545C98.378 6.05931 98.1541 5.83545 97.878 5.83545V6.83545ZM94.9082 5.83545C94.6321 5.83545 94.4082 6.05931 94.4082 6.33545C94.4082 6.61159 94.6321 6.83545 94.9082 6.83545V5.83545ZM91.9385 6.83545C92.2146 6.83545 92.4385 6.61159 92.4385 6.33545C92.4385 6.05931 92.2146 5.83545 91.9385 5.83545V6.83545ZM88.9687 5.83545C88.6926 5.83545 88.4687 6.05931 88.4687 6.33545C88.4687 6.61159 88.6926 6.83545 88.9687 6.83545V5.83545ZM85.999 6.83545C86.2751 6.83545 86.499 6.61159 86.499 6.33545C86.499 6.05931 86.2751 5.83545 85.999 5.83545V6.83545ZM83.0292 5.83545C82.7531 5.83545 82.5292 6.05931 82.5292 6.33545C82.5292 6.61159 82.7531 6.83545 83.0292 6.83545V5.83545ZM80.0595 6.83545C80.3356 6.83545 80.5595 6.61159 80.5595 6.33545C80.5595 6.05931 80.3356 5.83545 80.0595 5.83545V6.83545ZM77.0897 5.83545C76.8136 5.83545 76.5897 6.05931 76.5897 6.33545C76.5897 6.61159 76.8136 6.83545 77.0897 6.83545V5.83545ZM74.1199 6.83545C74.3961 6.83545 74.6199 6.61159 74.6199 6.33545C74.6199 6.05931 74.3961 5.83545 74.1199 5.83545V6.83545ZM71.1502 5.83545C70.874 5.83545 70.6502 6.05931 70.6502 6.33545C70.6502 6.61159 70.874 6.83545 71.1502 6.83545V5.83545ZM68.1804 6.83545C68.4566 6.83545 68.6804 6.61159 68.6804 6.33545C68.6804 6.05931 68.4566 5.83545 68.1804 5.83545V6.83545ZM65.2107 5.83545C64.9345 5.83545 64.7107 6.05931 64.7107 6.33545C64.7107 6.61159 64.9345 6.83545 65.2107 6.83545V5.83545ZM62.2409 6.83545C62.5171 6.83545 62.7409 6.61159 62.7409 6.33545C62.7409 6.05931 62.5171 5.83545 62.2409 5.83545V6.83545ZM59.2711 5.83545C58.995 5.83545 58.7711 6.05931 58.7711 6.33545C58.7711 6.61159 58.995 6.83545 59.2711 6.83545V5.83545ZM56.3014 6.83545C56.5775 6.83545 56.8014 6.61159 56.8014 6.33545C56.8014 6.05931 56.5775 5.83545 56.3014 5.83545V6.83545ZM53.3316 5.83545C53.0555 5.83545 52.8316 6.05931 52.8316 6.33545C52.8316 6.61159 53.0555 6.83545 53.3316 6.83545V5.83545ZM50.3619 6.83545C50.638 6.83545 50.8619 6.61159 50.8619 6.33545C50.8619 6.05931 50.638 5.83545 50.3619 5.83545V6.83545ZM47.3921 5.83545C47.116 5.83545 46.8921 6.05931 46.8921 6.33545C46.8921 6.61159 47.116 6.83545 47.3921 6.83545V5.83545ZM44.4224 6.83545C44.6985 6.83545 44.9224 6.61159 44.9224 6.33545C44.9224 6.05931 44.6985 5.83545 44.4224 5.83545V6.83545ZM41.4526 5.83545C41.1765 5.83545 40.9526 6.05931 40.9526 6.33545C40.9526 6.61159 41.1765 6.83545 41.4526 6.83545V5.83545ZM38.4828 6.83545C38.759 6.83545 38.9828 6.61159 38.9828 6.33545C38.9828 6.05931 38.759 5.83545 38.4828 5.83545V6.83545ZM35.5131 5.83545C35.237 5.83545 35.0131 6.05931 35.0131 6.33545C35.0131 6.61159 35.237 6.83545 35.5131 6.83545V5.83545ZM32.5433 6.83545C32.8195 6.83545 33.0433 6.61159 33.0433 6.33545C33.0433 6.05931 32.8195 5.83545 32.5433 5.83545V6.83545ZM29.5736 5.83545C29.2974 5.83545 29.0736 6.05931 29.0736 6.33545C29.0736 6.61159 29.2974 6.83545 29.5736 6.83545V5.83545ZM26.6038 6.83545C26.88 6.83545 27.1038 6.61159 27.1038 6.33545C27.1038 6.05931 26.88 5.83545 26.6038 5.83545V6.83545ZM24.88 5.8962C24.6374 6.02812 24.5477 6.33172 24.6796 6.57431C24.8115 6.81691 25.1151 6.90663 25.3577 6.7747L24.88 5.8962ZM25.6134 6.40892C25.654 6.13577 25.4655 5.88146 25.1923 5.84089C24.9192 5.80032 24.6649 5.98886 24.6243 6.26201L25.6134 6.40892ZM24.6189 6.33547C24.6189 6.82961 24.6036 7.31969 24.5735 7.80516L25.5716 7.86697C25.6029 7.36093 25.6189 6.85023 25.6189 6.33547H24.6189ZM24.2087 10.7177C24.0235 11.6915 23.7778 12.6401 23.4763 13.5585L24.4265 13.8704C24.7413 12.9111 24.9978 11.9207 25.1911 10.9045L24.2087 10.7177ZM22.3803 16.2779C21.951 17.1672 21.466 18.0178 20.9306 18.8237L21.7636 19.377C22.3244 18.5329 22.8319 17.6427 23.2809 16.7126L22.3803 16.2779ZM19.1435 21.1413C18.489 21.8751 17.7864 22.5546 17.0417 23.1735L17.6809 23.9426C18.4645 23.2913 19.2027 22.5771 19.8898 21.807L19.1435 21.1413ZM14.6587 24.8592C13.8212 25.3572 12.9463 25.7861 12.0402 26.1392L12.4033 27.0709C13.3618 26.6974 14.2861 26.2442 15.1698 25.7187L14.6587 24.8592ZM9.24777 26.9619C8.77403 27.0583 8.29406 27.1348 7.80858 27.1906L7.92272 28.184C8.43696 28.125 8.94537 28.0439 9.44717 27.9418L9.24777 26.9619ZM7.80858 27.1906C7.48317 27.228 7.17212 27.3203 6.88776 27.4582L7.32409 28.358C7.50873 28.2684 7.71101 28.2084 7.92272 28.184L7.80858 27.1906ZM5.56426 28.8337C5.43906 29.1322 5.36963 29.4586 5.36963 29.8013H6.36963C6.36963 29.5951 6.41117 29.3999 6.48641 29.2206L5.56426 28.8337ZM5.36963 29.8013V31.3112H6.36963V29.8013H5.36963ZM5.36963 34.3311V37.351H6.36963V34.3311H5.36963ZM5.36963 40.3709V43.3907H6.36963V40.3709H5.36963ZM5.36963 46.4106V49.4305H6.36963V46.4106H5.36963ZM5.36963 52.4503V55.4702H6.36963V52.4503H5.36963ZM5.36963 58.4901V61.5099H6.36963V58.4901H5.36963ZM5.36963 64.5298V67.5497H6.36963V64.5298H5.36963ZM5.36963 70.5696V73.5894H6.36963V70.5696H5.36963ZM5.36963 76.6093V79.6292H6.36963V76.6093H5.36963ZM5.36963 82.649V85.6689H6.36963V82.649H5.36963ZM5.36963 88.6888V90.1987H6.36963V88.6888H5.36963ZM5.36963 90.1987C5.36963 90.5414 5.43906 90.8679 5.56427 91.1663L6.48641 90.7795C6.41117 90.6001 6.36963 90.4049 6.36963 90.1987H5.36963ZM6.88776 92.5419C7.17212 92.6797 7.48317 92.7721 7.80859 92.8095L7.92272 91.816C7.71101 91.7917 7.50873 91.7316 7.32409 91.6421L6.88776 92.5419ZM7.80859 92.8095C8.26153 92.8615 8.70968 92.9316 9.15244 93.019L9.3462 92.038C8.87721 91.9453 8.4025 91.8711 7.92272 91.816L7.80859 92.8095ZM11.7675 93.7572C12.6191 94.0726 13.4439 94.4546 14.2371 94.8977L14.7248 94.0248C13.8875 93.5569 13.0158 93.1532 12.1148 92.8195L11.7675 93.7572ZM16.5092 96.3999C17.2249 96.9525 17.905 97.5597 18.5445 98.2161L19.2608 97.5183C18.5891 96.8288 17.874 96.1903 17.1203 95.6084L16.5092 96.3999ZM20.3133 100.297C20.8513 101.023 21.3465 101.79 21.7945 102.594L22.6681 102.107C22.1993 101.266 21.6806 100.462 21.1167 99.7014L20.3133 100.297ZM22.9731 105.063C23.3107 105.901 23.6005 106.768 23.8386 107.66L24.8048 107.402C24.5561 106.471 24.2534 105.565 23.9007 104.689L22.9731 105.063ZM24.385 110.344C24.449 110.794 24.5002 111.248 24.5382 111.707L25.5348 111.625C25.4952 111.146 25.4418 110.672 25.3751 110.203L24.385 110.344ZM24.5382 111.707C24.5655 112.036 24.6511 112.351 24.7848 112.639L25.6916 112.217C25.6067 112.035 25.5522 111.834 25.5348 111.625L24.5382 111.707ZM26.1539 113.971C26.4517 114.096 26.7774 114.165 27.1189 114.165V113.165C26.9132 113.165 26.7184 113.123 26.54 113.049L26.1539 113.971ZM27.1189 114.165H28.6172V113.165H27.1189V114.165ZM31.6139 114.165H34.6106V113.165H31.6139V114.165ZM37.6073 114.165H40.604V113.165H37.6073V114.165ZM43.6007 114.165H46.5974V113.165H43.6007V114.165ZM49.5941 114.165H52.5908V113.165H49.5941V114.165ZM55.5875 114.165H58.5842V113.165H55.5875V114.165ZM61.5809 114.165H64.5776V113.165H61.5809V114.165ZM67.5743 114.165H70.571V113.165H67.5743V114.165ZM73.5677 114.165H76.5644V113.165H73.5677V114.165ZM79.5611 114.165H82.5578V113.165H79.5611V114.165ZM85.5545 114.165H88.5512V113.165H85.5545V114.165ZM91.5479 114.165H94.5446V113.165H91.5479V114.165ZM97.5413 114.165H100.538V113.165H97.5413V114.165ZM103.535 114.165H106.531V113.165H103.535V114.165ZM109.528 114.165H112.525V113.165H109.528V114.165ZM115.521 114.165H118.518V113.165H115.521V114.165ZM121.515 114.165H124.512V113.165H121.515V114.165ZM127.508 114.165H130.505V113.165H127.508V114.165ZM133.502 114.165H136.498V113.165H133.502V114.165ZM139.495 114.165H142.492V113.165H139.495V114.165ZM145.488 114.165H148.485V113.165H145.488V114.165ZM151.482 114.165H154.479V113.165H151.482V114.165ZM157.475 114.165H160.472V113.165H157.475V114.165ZM163.469 114.165H166.465V113.165H163.469V114.165ZM169.462 114.165H172.459V113.165H169.462V114.165ZM175.455 114.165H178.452V113.165H175.455V114.165ZM181.449 114.165H184.446V113.165H181.449V114.165ZM187.442 114.165H190.439V113.165H187.442V114.165ZM193.436 114.165H196.432V113.165H193.436V114.165ZM199.429 114.165H202.426V113.165H199.429V114.165ZM205.423 114.165H208.419V113.165H205.423V114.165ZM211.416 114.165H214.413V113.165H211.416V114.165ZM217.409 114.165H220.406V113.165H217.409V114.165ZM223.403 114.165H226.399V113.165H223.403V114.165ZM229.396 114.165H232.393V113.165H229.396V114.165ZM235.39 114.165H238.386V113.165H235.39V114.165ZM241.383 114.165H242.881V113.165H241.383V114.165ZM242.881 114.165C243.223 114.165 243.548 114.096 243.846 113.971L243.46 113.049C243.282 113.123 243.087 113.165 242.881 113.165V114.165ZM245.215 112.639C245.349 112.351 245.435 112.036 245.462 111.707L244.465 111.625C244.448 111.834 244.393 112.035 244.309 112.217L245.215 112.639ZM245.462 111.707C245.5 111.248 245.551 110.794 245.615 110.344L244.625 110.203C244.558 110.672 244.505 111.146 244.465 111.625L245.462 111.707ZM246.162 107.66C246.4 106.768 246.689 105.901 247.027 105.063L246.099 104.689C245.747 105.565 245.444 106.471 245.195 107.402L246.162 107.66ZM248.206 102.594C248.654 101.79 249.149 101.023 249.687 100.297L248.883 99.7014C248.319 100.462 247.801 101.266 247.332 102.107L248.206 102.594ZM251.456 98.2161C252.095 97.5597 252.775 96.9525 253.491 96.3999L252.88 95.6083C252.126 96.1903 251.411 96.8288 250.739 97.5183L251.456 98.2161ZM255.763 94.8977C256.556 94.4546 257.381 94.0726 258.233 93.7572L257.885 92.8195C256.984 93.1532 256.113 93.5569 255.275 94.0248L255.763 94.8977ZM260.848 93.019C261.29 92.9316 261.739 92.8615 262.192 92.8095L262.077 91.816C261.598 91.8711 261.123 91.9453 260.654 92.038L260.848 93.019ZM262.192 92.8095C262.517 92.7721 262.828 92.6797 263.112 92.5419L262.676 91.6421C262.491 91.7316 262.289 91.7917 262.077 91.816L262.192 92.8095ZM264.436 91.1663C264.561 90.8679 264.63 90.5414 264.63 90.1987H263.63C263.63 90.4049 263.589 90.6001 263.514 90.7795L264.436 91.1663ZM264.63 90.1987V88.6888H263.63V90.1987H264.63ZM264.63 85.6689V82.6491H263.63V85.6689H264.63ZM264.63 79.6292V76.6093H263.63V79.6292H264.63ZM264.63 73.5894V70.5696H263.63V73.5894H264.63ZM264.63 67.5497V64.5298H263.63V67.5497H264.63ZM264.63 61.51V58.4901H263.63V61.51H264.63ZM264.63 55.4702V52.4503H263.63V55.4702H264.63ZM264.63 49.4305V46.4106H263.63V49.4305H264.63ZM264.63 43.3907V40.3709H263.63V43.3907H264.63ZM264.63 37.351V34.3311H263.63V37.351H264.63ZM264.63 31.3112V29.8013H263.63V31.3112H264.63ZM264.63 29.8013C264.63 29.4586 264.561 29.1322 264.436 28.8337L263.514 29.2206C263.589 29.3999 263.63 29.5951 263.63 29.8013H264.63ZM263.112 27.4582C262.828 27.3203 262.517 27.228 262.192 27.1906L262.077 28.184C262.289 28.2084 262.491 28.2684 262.676 28.358L263.112 27.4582ZM262.192 27.1906C261.706 27.1348 261.226 27.0583 260.752 26.9619L260.553 27.9418C261.055 28.0439 261.563 28.125 262.077 28.184L262.192 27.1906ZM257.96 26.1392C257.054 25.7861 256.179 25.3572 255.341 24.8592L254.83 25.7187C255.714 26.2442 256.638 26.6974 257.597 27.0709L257.96 26.1392ZM252.958 23.1735C252.214 22.5546 251.511 21.8751 250.857 21.1413L250.11 21.807C250.797 22.5771 251.536 23.2913 252.319 23.9426L252.958 23.1735ZM249.069 18.8237C248.534 18.0178 248.049 17.1672 247.62 16.2779L246.719 16.7126C247.168 17.6427 247.676 18.5329 248.237 19.377L249.069 18.8237ZM246.524 13.5585C246.222 12.6401 245.977 11.6915 245.791 10.7177L244.809 10.9045C245.002 11.9207 245.259 12.9111 245.574 13.8704L246.524 13.5585ZM245.427 7.80516C245.397 7.31969 245.381 6.82961 245.381 6.33547H244.381C244.381 6.85023 244.397 7.36093 244.428 7.86697L245.427 7.80516ZM245.381 6.33547C245.381 6.26859 245.368 6.20358 245.343 6.14393L244.419 6.52699C244.395 6.46734 244.381 6.40234 244.381 6.33547H245.381ZM245.073 5.87359C245.013 5.84885 244.948 5.83545 244.881 5.83545V6.83545C244.814 6.83545 244.749 6.82205 244.69 6.79731L245.073 5.87359ZM244.881 5.83545H243.396V6.83545H244.881V5.83545ZM240.427 5.83545H237.457V6.83545H240.427V5.83545ZM234.487 5.83545H231.517V6.83545H234.487V5.83545ZM228.548 5.83545H225.578V6.83545H228.548V5.83545ZM222.608 5.83545H219.638V6.83545H222.608V5.83545ZM216.668 5.83545H213.699V6.83545H216.668V5.83545ZM210.729 5.83545H207.759V6.83545H210.729V5.83545ZM204.789 5.83545H201.82V6.83545H204.789V5.83545ZM198.85 5.83545H195.88V6.83545H198.85V5.83545ZM192.91 5.83545H189.941V6.83545H192.91V5.83545ZM186.971 5.83545H184.001V6.83545H186.971V5.83545ZM181.031 5.83545H178.062V6.83545H181.031V5.83545ZM175.092 5.83545H172.122V6.83545H175.092V5.83545ZM169.152 5.83545H166.183V6.83545H169.152V5.83545ZM163.213 5.83545H160.243V6.83545H163.213V5.83545ZM157.273 5.83545H154.303V6.83545H157.273V5.83545ZM151.334 5.83545H148.364V6.83545H151.334V5.83545ZM145.394 5.83545H142.424V6.83545H145.394V5.83545ZM139.455 5.83545H136.485V6.83545H139.455V5.83545ZM133.515 5.83545H130.545V6.83545H133.515V5.83545ZM127.576 5.83545H124.606V6.83545H127.576V5.83545ZM121.636 5.83545H118.666V6.83545H121.636V5.83545ZM115.697 5.83545H112.727V6.83545H115.697V5.83545ZM109.757 5.83545H106.787V6.83545H109.757V5.83545ZM103.818 5.83545H100.848V6.83545H103.818V5.83545ZM97.878 5.83545H94.9082V6.83545H97.878V5.83545ZM91.9385 5.83545H88.9687V6.83545H91.9385V5.83545ZM85.999 5.83545H83.0292V6.83545H85.999V5.83545ZM80.0595 5.83545H77.0897V6.83545H80.0595V5.83545ZM74.1199 5.83545H71.1502V6.83545H74.1199V5.83545ZM68.1804 5.83545H65.2107V6.83545H68.1804V5.83545ZM62.2409 5.83545H59.2711V6.83545H62.2409V5.83545ZM56.3014 5.83545H53.3316V6.83545H56.3014V5.83545ZM50.3619 5.83545H47.3921V6.83545H50.3619V5.83545ZM44.4224 5.83545H41.4526V6.83545H44.4224V5.83545ZM38.4828 5.83545H35.5131V6.83545H38.4828V5.83545ZM32.5433 5.83545H29.5736V6.83545H32.5433V5.83545ZM26.6038 5.83545H25.1189V6.83545H26.6038V5.83545ZM25.1189 5.83545C25.0522 5.83545 24.9668 5.84903 24.88 5.8962L25.3577 6.7747C25.271 6.82187 25.1856 6.83545 25.1189 6.83545V5.83545ZM24.6243 6.26201C24.6197 6.29309 24.6189 6.31882 24.6189 6.33547H25.6189C25.6189 6.35211 25.6181 6.37784 25.6134 6.40892L24.6243 6.26201ZM26.1189 6.33547C26.1189 5.78318 25.6712 5.33547 25.1189 5.33547C24.5666 5.33547 24.1189 5.78318 24.1189 6.33547H26.1189ZM245.881 6.33547C245.881 5.78318 245.434 5.33547 244.881 5.33547C244.329 5.33547 243.881 5.78318 243.881 6.33547H245.881ZM243.881 6.33547C243.881 6.88775 244.329 7.33547 244.881 7.33547C245.434 7.33547 245.881 6.88775 245.881 6.33547H243.881ZM24.1189 6.33547C24.1189 6.88775 24.5666 7.33547 25.1189 7.33547C25.6712 7.33547 26.1189 6.88775 26.1189 6.33547H24.1189ZM7.86565 27.6873L7.75151 26.6938L7.86565 27.6873ZM7.86565 92.3127L7.75152 93.3062L7.86565 92.3127ZM25.0365 111.666L24.0399 111.748L25.0365 111.666ZM244.964 111.666L245.96 111.748L244.964 111.666ZM262.134 27.6873L262.02 28.6808L262.134 27.6873ZM262.134 92.3127L262.02 91.3193L262.134 92.3127ZM24.0745 7.77426C24.0403 8.32549 24.4595 8.80002 25.0108 8.83415C25.562 8.86828 26.0365 8.4491 26.0707 7.89787L24.0745 7.77426ZM25.6823 10.9979C25.7854 10.4554 25.4293 9.93189 24.8867 9.8287C24.3441 9.7255 23.8207 10.0817 23.7175 10.6242L25.6823 10.9979ZM23.0013 13.4026C22.829 13.9273 23.1148 14.4923 23.6395 14.6646C24.1643 14.8368 24.7293 14.551 24.9015 14.0263L23.0013 13.4026ZM23.7312 16.9299C23.9712 16.4325 23.7627 15.8347 23.2653 15.5946C22.7679 15.3546 22.1701 15.5631 21.93 16.0605L23.7312 16.9299ZM20.5142 18.547C20.2086 19.007 20.3338 19.6277 20.7938 19.9333C21.2538 20.2389 21.8745 20.1137 22.1801 19.6537L20.5142 18.547ZM20.2629 22.1398C20.6305 21.7277 20.5945 21.0955 20.1823 20.7279C19.7702 20.3602 19.1381 20.3963 18.7704 20.8084L20.2629 22.1398ZM16.7221 22.789C16.2974 23.142 16.2392 23.7725 16.5922 24.1972C16.9452 24.6219 17.5757 24.6801 18.0004 24.3271L16.7221 22.789ZM15.4254 26.1484C15.9001 25.8661 16.0561 25.2525 15.7738 24.7778C15.4915 24.3031 14.8778 24.1471 14.4032 24.4294L15.4254 26.1484ZM11.8586 25.6733C11.344 25.8738 11.0894 26.4536 11.29 26.9681C11.4905 27.4827 12.0702 27.7373 12.5848 27.5368L11.8586 25.6733ZM9.54688 28.4318C10.0881 28.3216 10.4375 27.7936 10.3274 27.2525C10.2173 26.7113 9.68926 26.3618 9.14807 26.4719L9.54688 28.4318ZM6.6696 27.0083C6.17266 27.2493 5.96516 27.8475 6.20613 28.3444C6.44711 28.8413 7.04531 29.0488 7.54225 28.8079L6.6696 27.0083ZM6.94748 29.414C7.16113 28.9047 6.92147 28.3186 6.41218 28.105C5.90289 27.8913 5.31684 28.131 5.10319 28.6403L6.94748 29.414ZM4.86963 31.3112C4.86963 31.8635 5.31734 32.3112 5.86963 32.3112C6.42191 32.3112 6.86963 31.8635 6.86963 31.3112H4.86963ZM6.86963 34.3311C6.86963 33.7788 6.42191 33.3311 5.86963 33.3311C5.31734 33.3311 4.86963 33.7788 4.86963 34.3311H6.86963ZM4.86963 37.351C4.86963 37.9033 5.31734 38.351 5.86963 38.351C6.42191 38.351 6.86963 37.9033 6.86963 37.351H4.86963ZM6.86963 40.3709C6.86963 39.8186 6.42191 39.3709 5.86963 39.3709C5.31734 39.3709 4.86963 39.8186 4.86963 40.3709H6.86963ZM4.86963 43.3907C4.86963 43.943 5.31734 44.3907 5.86963 44.3907C6.42191 44.3907 6.86963 43.943 6.86963 43.3907H4.86963ZM6.86963 46.4106C6.86963 45.8583 6.42191 45.4106 5.86963 45.4106C5.31734 45.4106 4.86963 45.8583 4.86963 46.4106H6.86963ZM4.86963 49.4305C4.86963 49.9828 5.31734 50.4305 5.86963 50.4305C6.42191 50.4305 6.86963 49.9828 6.86963 49.4305H4.86963ZM6.86963 52.4503C6.86963 51.8981 6.42191 51.4503 5.86963 51.4503C5.31734 51.4503 4.86963 51.8981 4.86963 52.4503H6.86963ZM4.86963 55.4702C4.86963 56.0225 5.31734 56.4702 5.86963 56.4702C6.42191 56.4702 6.86963 56.0225 6.86963 55.4702H4.86963ZM6.86963 58.4901C6.86963 57.9378 6.42191 57.4901 5.86963 57.4901C5.31734 57.4901 4.86963 57.9378 4.86963 58.4901H6.86963ZM4.86963 61.5099C4.86963 62.0622 5.31734 62.5099 5.86963 62.5099C6.42191 62.5099 6.86963 62.0622 6.86963 61.5099H4.86963ZM6.86963 64.5298C6.86963 63.9775 6.42191 63.5298 5.86963 63.5298C5.31734 63.5298 4.86963 63.9775 4.86963 64.5298H6.86963ZM4.86963 67.5497C4.86963 68.102 5.31734 68.5497 5.86963 68.5497C6.42191 68.5497 6.86963 68.102 6.86963 67.5497H4.86963ZM6.86963 70.5696C6.86963 70.0173 6.42191 69.5696 5.86963 69.5696C5.31734 69.5696 4.86963 70.0173 4.86963 70.5696H6.86963ZM4.86963 73.5894C4.86963 74.1417 5.31734 74.5894 5.86963 74.5894C6.42191 74.5894 6.86963 74.1417 6.86963 73.5894H4.86963ZM6.86963 76.6093C6.86963 76.057 6.42191 75.6093 5.86963 75.6093C5.31734 75.6093 4.86963 76.057 4.86963 76.6093H6.86963ZM4.86963 79.6292C4.86963 80.1815 5.31734 80.6292 5.86963 80.6292C6.42191 80.6292 6.86963 80.1815 6.86963 79.6292H4.86963ZM6.86963 82.649C6.86963 82.0968 6.42191 81.649 5.86963 81.649C5.31734 81.649 4.86963 82.0968 4.86963 82.649H6.86963ZM4.86963 85.6689C4.86963 86.2212 5.31734 86.6689 5.86963 86.6689C6.42191 86.6689 6.86963 86.2212 6.86963 85.6689H4.86963ZM6.86963 88.6888C6.86963 88.1365 6.42191 87.6888 5.86963 87.6888C5.31734 87.6888 4.86963 88.1365 4.86963 88.6888H6.86963ZM5.10319 91.3597C5.31684 91.869 5.90289 92.1087 6.41218 91.895C6.92147 91.6814 7.16113 91.0953 6.94748 90.5861L5.10319 91.3597ZM7.54225 91.1922C7.04531 90.9512 6.44711 91.1587 6.20614 91.6556C5.96516 92.1526 6.17266 92.7508 6.6696 92.9917L7.54225 91.1922ZM9.05556 93.5096C9.59738 93.6166 10.1234 93.2641 10.2304 92.7223C10.3374 92.1804 9.9849 91.6545 9.44308 91.5475L9.05556 93.5096ZM12.2885 92.3506C11.7706 92.1588 11.1952 92.4231 11.0034 92.9411C10.8116 93.459 11.0759 94.0343 11.5939 94.2261L12.2885 92.3506ZM13.9932 95.3342C14.4753 95.6036 15.0845 95.4311 15.3539 94.949C15.6233 94.4669 15.4508 93.8577 14.9687 93.5883L13.9932 95.3342ZM17.4259 95.2126C16.9888 94.8751 16.3608 94.9558 16.0233 95.3929C15.6857 95.8301 15.7665 96.4581 16.2036 96.7956L17.4259 95.2126ZM18.1863 98.565C18.5717 98.9606 19.2048 98.9689 19.6004 98.5835C19.996 98.1981 20.0043 97.565 19.6189 97.1694L18.1863 98.565ZM21.5184 99.4037C21.1896 98.96 20.5633 98.8669 20.1196 99.1957C19.6759 99.5245 19.5827 100.151 19.9116 100.595L21.5184 99.4037ZM21.3578 102.838C21.6266 103.32 22.2356 103.493 22.7181 103.224C23.2005 102.956 23.3737 102.347 23.1048 101.864L21.3578 102.838ZM24.3644 104.503C24.158 103.99 23.5755 103.742 23.0632 103.949C22.5509 104.155 22.303 104.738 22.5094 105.25L24.3644 104.503ZM23.3555 107.789C23.4979 108.323 24.0459 108.64 24.5795 108.497C25.1131 108.355 25.4303 107.807 25.2878 107.273L23.3555 107.789ZM25.8701 110.133C25.7922 109.586 25.2859 109.206 24.7391 109.284C24.1924 109.361 23.8122 109.868 23.89 110.414L25.8701 110.133ZM24.3314 112.849C24.5642 113.35 25.1589 113.568 25.6597 113.335C26.1606 113.102 26.3778 112.507 26.145 112.006L24.3314 112.849ZM26.733 112.587C26.2235 112.374 25.6377 112.614 25.4245 113.124C25.2113 113.633 25.4515 114.219 25.9609 114.432L26.733 112.587ZM28.6172 114.665C29.1695 114.665 29.6172 114.217 29.6172 113.665C29.6172 113.112 29.1695 112.665 28.6172 112.665V114.665ZM31.6139 112.665C31.0616 112.665 30.6139 113.112 30.6139 113.665C30.6139 114.217 31.0616 114.665 31.6139 114.665V112.665ZM34.6106 114.665C35.1629 114.665 35.6106 114.217 35.6106 113.665C35.6106 113.112 35.1629 112.665 34.6106 112.665V114.665ZM37.6073 112.665C37.055 112.665 36.6073 113.112 36.6073 113.665C36.6073 114.217 37.055 114.665 37.6073 114.665V112.665ZM40.604 114.665C41.1563 114.665 41.604 114.217 41.604 113.665C41.604 113.112 41.1563 112.665 40.604 112.665V114.665ZM43.6007 112.665C43.0484 112.665 42.6007 113.112 42.6007 113.665C42.6007 114.217 43.0484 114.665 43.6007 114.665V112.665ZM46.5974 114.665C47.1497 114.665 47.5974 114.217 47.5974 113.665C47.5974 113.112 47.1497 112.665 46.5974 112.665V114.665ZM49.5941 112.665C49.0418 112.665 48.5941 113.112 48.5941 113.665C48.5941 114.217 49.0418 114.665 49.5941 114.665V112.665ZM52.5908 114.665C53.1431 114.665 53.5908 114.217 53.5908 113.665C53.5908 113.112 53.1431 112.665 52.5908 112.665V114.665ZM55.5875 112.665C55.0352 112.665 54.5875 113.112 54.5875 113.665C54.5875 114.217 55.0352 114.665 55.5875 114.665V112.665ZM58.5842 114.665C59.1365 114.665 59.5842 114.217 59.5842 113.665C59.5842 113.112 59.1365 112.665 58.5842 112.665V114.665ZM61.5809 112.665C61.0286 112.665 60.5809 113.112 60.5809 113.665C60.5809 114.217 61.0286 114.665 61.5809 114.665V112.665ZM64.5776 114.665C65.1299 114.665 65.5776 114.217 65.5776 113.665C65.5776 113.112 65.1299 112.665 64.5776 112.665V114.665ZM67.5743 112.665C67.022 112.665 66.5743 113.112 66.5743 113.665C66.5743 114.217 67.022 114.665 67.5743 114.665V112.665ZM70.571 114.665C71.1233 114.665 71.571 114.217 71.571 113.665C71.571 113.112 71.1233 112.665 70.571 112.665V114.665ZM73.5677 112.665C73.0154 112.665 72.5677 113.112 72.5677 113.665C72.5677 114.217 73.0154 114.665 73.5677 114.665V112.665ZM76.5644 114.665C77.1167 114.665 77.5644 114.217 77.5644 113.665C77.5644 113.112 77.1167 112.665 76.5644 112.665V114.665ZM79.5611 112.665C79.0088 112.665 78.5611 113.112 78.5611 113.665C78.5611 114.217 79.0088 114.665 79.5611 114.665V112.665ZM82.5578 114.665C83.1101 114.665 83.5578 114.217 83.5578 113.665C83.5578 113.112 83.1101 112.665 82.5578 112.665V114.665ZM85.5545 112.665C85.0022 112.665 84.5545 113.112 84.5545 113.665C84.5545 114.217 85.0022 114.665 85.5545 114.665V112.665ZM88.5512 114.665C89.1035 114.665 89.5512 114.217 89.5512 113.665C89.5512 113.112 89.1035 112.665 88.5512 112.665V114.665ZM91.5479 112.665C90.9956 112.665 90.5479 113.112 90.5479 113.665C90.5479 114.217 90.9956 114.665 91.5479 114.665V112.665ZM94.5446 114.665C95.0969 114.665 95.5446 114.217 95.5446 113.665C95.5446 113.112 95.0969 112.665 94.5446 112.665V114.665ZM97.5413 112.665C96.989 112.665 96.5413 113.112 96.5413 113.665C96.5413 114.217 96.989 114.665 97.5413 114.665V112.665ZM100.538 114.665C101.09 114.665 101.538 114.217 101.538 113.665C101.538 113.112 101.09 112.665 100.538 112.665V114.665ZM103.535 112.665C102.982 112.665 102.535 113.112 102.535 113.665C102.535 114.217 102.982 114.665 103.535 114.665V112.665ZM106.531 114.665C107.084 114.665 107.531 114.217 107.531 113.665C107.531 113.112 107.084 112.665 106.531 112.665V114.665ZM109.528 112.665C108.976 112.665 108.528 113.112 108.528 113.665C108.528 114.217 108.976 114.665 109.528 114.665V112.665ZM112.525 114.665C113.077 114.665 113.525 114.217 113.525 113.665C113.525 113.112 113.077 112.665 112.525 112.665V114.665ZM115.521 112.665C114.969 112.665 114.521 113.112 114.521 113.665C114.521 114.217 114.969 114.665 115.521 114.665V112.665ZM118.518 114.665C119.07 114.665 119.518 114.217 119.518 113.665C119.518 113.112 119.07 112.665 118.518 112.665V114.665ZM121.515 112.665C120.963 112.665 120.515 113.112 120.515 113.665C120.515 114.217 120.963 114.665 121.515 114.665V112.665ZM124.512 114.665C125.064 114.665 125.512 114.217 125.512 113.665C125.512 113.112 125.064 112.665 124.512 112.665V114.665ZM127.508 112.665C126.956 112.665 126.508 113.112 126.508 113.665C126.508 114.217 126.956 114.665 127.508 114.665V112.665ZM130.505 114.665C131.057 114.665 131.505 114.217 131.505 113.665C131.505 113.112 131.057 112.665 130.505 112.665V114.665ZM133.502 112.665C132.949 112.665 132.502 113.112 132.502 113.665C132.502 114.217 132.949 114.665 133.502 114.665V112.665ZM136.498 114.665C137.051 114.665 137.498 114.217 137.498 113.665C137.498 113.112 137.051 112.665 136.498 112.665V114.665ZM139.495 112.665C138.943 112.665 138.495 113.112 138.495 113.665C138.495 114.217 138.943 114.665 139.495 114.665V112.665ZM142.492 114.665C143.044 114.665 143.492 114.217 143.492 113.665C143.492 113.112 143.044 112.665 142.492 112.665V114.665ZM145.488 112.665C144.936 112.665 144.488 113.112 144.488 113.665C144.488 114.217 144.936 114.665 145.488 114.665V112.665ZM148.485 114.665C149.037 114.665 149.485 114.217 149.485 113.665C149.485 113.112 149.037 112.665 148.485 112.665V114.665ZM151.482 112.665C150.93 112.665 150.482 113.112 150.482 113.665C150.482 114.217 150.93 114.665 151.482 114.665V112.665ZM154.479 114.665C155.031 114.665 155.479 114.217 155.479 113.665C155.479 113.112 155.031 112.665 154.479 112.665V114.665ZM157.475 112.665C156.923 112.665 156.475 113.112 156.475 113.665C156.475 114.217 156.923 114.665 157.475 114.665V112.665ZM160.472 114.665C161.024 114.665 161.472 114.217 161.472 113.665C161.472 113.112 161.024 112.665 160.472 112.665V114.665ZM163.469 112.665C162.916 112.665 162.469 113.112 162.469 113.665C162.469 114.217 162.916 114.665 163.469 114.665V112.665ZM166.465 114.665C167.018 114.665 167.465 114.217 167.465 113.665C167.465 113.112 167.018 112.665 166.465 112.665V114.665ZM169.462 112.665C168.91 112.665 168.462 113.112 168.462 113.665C168.462 114.217 168.91 114.665 169.462 114.665V112.665ZM172.459 114.665C173.011 114.665 173.459 114.217 173.459 113.665C173.459 113.112 173.011 112.665 172.459 112.665V114.665ZM175.455 112.665C174.903 112.665 174.455 113.112 174.455 113.665C174.455 114.217 174.903 114.665 175.455 114.665V112.665ZM178.452 114.665C179.004 114.665 179.452 114.217 179.452 113.665C179.452 113.112 179.004 112.665 178.452 112.665V114.665ZM181.449 112.665C180.897 112.665 180.449 113.112 180.449 113.665C180.449 114.217 180.897 114.665 181.449 114.665V112.665ZM184.446 114.665C184.998 114.665 185.446 114.217 185.446 113.665C185.446 113.112 184.998 112.665 184.446 112.665V114.665ZM187.442 112.665C186.89 112.665 186.442 113.112 186.442 113.665C186.442 114.217 186.89 114.665 187.442 114.665V112.665ZM190.439 114.665C190.991 114.665 191.439 114.217 191.439 113.665C191.439 113.112 190.991 112.665 190.439 112.665V114.665ZM193.436 112.665C192.883 112.665 192.436 113.112 192.436 113.665C192.436 114.217 192.883 114.665 193.436 114.665V112.665ZM196.432 114.665C196.985 114.665 197.432 114.217 197.432 113.665C197.432 113.112 196.985 112.665 196.432 112.665V114.665ZM199.429 112.665C198.877 112.665 198.429 113.112 198.429 113.665C198.429 114.217 198.877 114.665 199.429 114.665V112.665ZM202.426 114.665C202.978 114.665 203.426 114.217 203.426 113.665C203.426 113.112 202.978 112.665 202.426 112.665V114.665ZM205.423 112.665C204.87 112.665 204.423 113.112 204.423 113.665C204.423 114.217 204.87 114.665 205.423 114.665V112.665ZM208.419 114.665C208.971 114.665 209.419 114.217 209.419 113.665C209.419 113.112 208.971 112.665 208.419 112.665V114.665ZM211.416 112.665C210.864 112.665 210.416 113.112 210.416 113.665C210.416 114.217 210.864 114.665 211.416 114.665V112.665ZM214.413 114.665C214.965 114.665 215.413 114.217 215.413 113.665C215.413 113.112 214.965 112.665 214.413 112.665V114.665ZM217.409 112.665C216.857 112.665 216.409 113.112 216.409 113.665C216.409 114.217 216.857 114.665 217.409 114.665V112.665ZM220.406 114.665C220.958 114.665 221.406 114.217 221.406 113.665C221.406 113.112 220.958 112.665 220.406 112.665V114.665ZM223.403 112.665C222.85 112.665 222.403 113.112 222.403 113.665C222.403 114.217 222.85 114.665 223.403 114.665V112.665ZM226.399 114.665C226.952 114.665 227.399 114.217 227.399 113.665C227.399 113.112 226.952 112.665 226.399 112.665V114.665ZM229.396 112.665C228.844 112.665 228.396 113.112 228.396 113.665C228.396 114.217 228.844 114.665 229.396 114.665V112.665ZM232.393 114.665C232.945 114.665 233.393 114.217 233.393 113.665C233.393 113.112 232.945 112.665 232.393 112.665V114.665ZM235.39 112.665C234.837 112.665 234.39 113.112 234.39 113.665C234.39 114.217 234.837 114.665 235.39 114.665V112.665ZM238.386 114.665C238.939 114.665 239.386 114.217 239.386 113.665C239.386 113.112 238.939 112.665 238.386 112.665V114.665ZM241.383 112.665C240.831 112.665 240.383 113.112 240.383 113.665C240.383 114.217 240.831 114.665 241.383 114.665V112.665ZM244.039 114.432C244.549 114.219 244.789 113.633 244.576 113.124C244.362 112.614 243.777 112.374 243.267 112.587L244.039 114.432ZM243.855 112.006C243.622 112.507 243.84 113.102 244.34 113.335C244.841 113.568 245.436 113.35 245.669 112.849L243.855 112.006ZM246.11 110.414C246.188 109.868 245.808 109.361 245.261 109.284C244.714 109.206 244.208 109.586 244.13 110.133L246.11 110.414ZM244.712 107.273C244.57 107.807 244.887 108.355 245.421 108.497C245.954 108.64 246.502 108.323 246.645 107.789L244.712 107.273ZM247.491 105.25C247.697 104.738 247.449 104.155 246.937 103.949C246.425 103.742 245.842 103.99 245.636 104.503L247.491 105.25ZM246.895 101.864C246.626 102.347 246.8 102.956 247.282 103.224C247.764 103.493 248.374 103.32 248.642 102.838L246.895 101.864ZM250.089 100.595C250.417 100.151 250.324 99.5245 249.88 99.1957C249.437 98.8669 248.81 98.96 248.482 99.4037L250.089 100.595ZM250.381 97.1694C249.996 97.565 250.004 98.1981 250.4 98.5835C250.795 98.9689 251.428 98.9606 251.814 98.565L250.381 97.1694ZM253.797 96.7956C254.234 96.4581 254.314 95.8301 253.977 95.3929C253.639 94.9558 253.011 94.8751 252.574 95.2126L253.797 96.7956ZM255.031 93.5883C254.549 93.8577 254.377 94.4669 254.646 94.949C254.916 95.4311 255.525 95.6036 256.007 95.3342L255.031 93.5883ZM258.406 94.2261C258.924 94.0343 259.189 93.459 258.997 92.941C258.805 92.4231 258.23 92.1588 257.712 92.3506L258.406 94.2261ZM260.557 91.5475C260.015 91.6545 259.663 92.1804 259.77 92.7223C259.877 93.2641 260.403 93.6166 260.945 93.5095L260.557 91.5475ZM263.331 92.9917C263.827 92.7508 264.035 92.1526 263.794 91.6556C263.553 91.1587 262.955 90.9512 262.458 91.1922L263.331 92.9917ZM263.053 90.5861C262.839 91.0953 263.079 91.6814 263.588 91.895C264.097 92.1087 264.683 91.869 264.897 91.3597L263.053 90.5861ZM265.13 88.6888C265.13 88.1365 264.683 87.6888 264.13 87.6888C263.578 87.6888 263.13 88.1365 263.13 88.6888H265.13ZM263.13 85.6689C263.13 86.2212 263.578 86.6689 264.13 86.6689C264.683 86.6689 265.13 86.2212 265.13 85.6689H263.13ZM265.13 82.6491C265.13 82.0968 264.683 81.6491 264.13 81.6491C263.578 81.6491 263.13 82.0968 263.13 82.6491H265.13ZM263.13 79.6292C263.13 80.1815 263.578 80.6292 264.13 80.6292C264.683 80.6292 265.13 80.1815 265.13 79.6292H263.13ZM265.13 76.6093C265.13 76.057 264.683 75.6093 264.13 75.6093C263.578 75.6093 263.13 76.057 263.13 76.6093H265.13ZM263.13 73.5894C263.13 74.1417 263.578 74.5894 264.13 74.5894C264.683 74.5894 265.13 74.1417 265.13 73.5894H263.13ZM265.13 70.5696C265.13 70.0173 264.683 69.5696 264.13 69.5696C263.578 69.5696 263.13 70.0173 263.13 70.5696H265.13ZM263.13 67.5497C263.13 68.102 263.578 68.5497 264.13 68.5497C264.683 68.5497 265.13 68.102 265.13 67.5497H263.13ZM265.13 64.5298C265.13 63.9775 264.683 63.5298 264.13 63.5298C263.578 63.5298 263.13 63.9775 263.13 64.5298H265.13ZM263.13 61.51C263.13 62.0622 263.578 62.51 264.13 62.51C264.683 62.51 265.13 62.0622 265.13 61.51H263.13ZM265.13 58.4901C265.13 57.9378 264.683 57.4901 264.13 57.4901C263.578 57.4901 263.13 57.9378 263.13 58.4901H265.13ZM263.13 55.4702C263.13 56.0225 263.578 56.4702 264.13 56.4702C264.683 56.4702 265.13 56.0225 265.13 55.4702H263.13ZM265.13 52.4503C265.13 51.8981 264.683 51.4503 264.13 51.4503C263.578 51.4503 263.13 51.8981 263.13 52.4503H265.13ZM263.13 49.4305C263.13 49.9828 263.578 50.4305 264.13 50.4305C264.683 50.4305 265.13 49.9828 265.13 49.4305H263.13ZM265.13 46.4106C265.13 45.8583 264.683 45.4106 264.13 45.4106C263.578 45.4106 263.13 45.8583 263.13 46.4106H265.13ZM263.13 43.3907C263.13 43.943 263.578 44.3907 264.13 44.3907C264.683 44.3907 265.13 43.943 265.13 43.3907H263.13ZM265.13 40.3709C265.13 39.8186 264.683 39.3709 264.13 39.3709C263.578 39.3709 263.13 39.8186 263.13 40.3709H265.13ZM263.13 37.351C263.13 37.9033 263.578 38.351 264.13 38.351C264.683 38.351 265.13 37.9033 265.13 37.351H263.13ZM265.13 34.3311C265.13 33.7788 264.683 33.3311 264.13 33.3311C263.578 33.3311 263.13 33.7788 263.13 34.3311H265.13ZM263.13 31.3112C263.13 31.8635 263.578 32.3112 264.13 32.3112C264.683 32.3112 265.13 31.8635 265.13 31.3112H263.13ZM264.897 28.6403C264.683 28.131 264.097 27.8913 263.588 28.105C263.079 28.3186 262.839 28.9047 263.053 29.414L264.897 28.6403ZM262.458 28.8079C262.955 29.0488 263.553 28.8413 263.794 28.3444C264.035 27.8475 263.827 27.2493 263.331 27.0083L262.458 28.8079ZM260.852 26.4719C260.311 26.3618 259.783 26.7113 259.673 27.2525C259.563 27.7936 259.912 28.3216 260.453 28.4318L260.852 26.4719ZM257.415 27.5368C257.93 27.7373 258.51 27.4827 258.71 26.9682C258.911 26.4536 258.656 25.8738 258.141 25.6733L257.415 27.5368ZM255.597 24.4294C255.122 24.1471 254.509 24.3031 254.226 24.7778C253.944 25.2525 254.1 25.8662 254.575 26.1484L255.597 24.4294ZM252 24.3271C252.424 24.6801 253.055 24.6219 253.408 24.1972C253.761 23.7725 253.703 23.142 253.278 22.789L252 24.3271ZM251.23 20.8084C250.862 20.3963 250.23 20.3603 249.818 20.7279C249.406 21.0955 249.37 21.7277 249.737 22.1398L251.23 20.8084ZM247.82 19.6537C248.126 20.1137 248.746 20.2389 249.206 19.9333C249.666 19.6277 249.792 19.007 249.486 18.547L247.82 19.6537ZM248.07 16.0605C247.83 15.5631 247.232 15.3546 246.735 15.5946C246.237 15.8347 246.029 16.4326 246.269 16.9299L248.07 16.0605ZM245.099 14.0263C245.271 14.5511 245.836 14.8368 246.361 14.6646C246.885 14.4923 247.171 13.9273 246.999 13.4026L245.099 14.0263ZM246.283 10.6242C246.179 10.0817 245.656 9.72551 245.113 9.8287C244.571 9.93189 244.215 10.4554 244.318 10.9979L246.283 10.6242ZM243.929 7.89787C243.964 8.4491 244.438 8.86829 244.989 8.83415C245.541 8.80002 245.96 8.32549 245.926 7.77426L243.929 7.89787ZM245.805 5.95241C245.593 5.44225 245.008 5.20018 244.498 5.41174C243.988 5.62329 243.746 6.20836 243.958 6.71851L245.805 5.95241ZM244.498 7.25918C245.008 7.47073 245.593 7.22866 245.805 6.7185C246.016 6.20834 245.774 5.62328 245.264 5.41172L244.498 7.25918ZM243.396 5.33545C242.844 5.33545 242.396 5.78316 242.396 6.33545C242.396 6.88773 242.844 7.33545 243.396 7.33545V5.33545ZM240.427 7.33545C240.979 7.33545 241.427 6.88773 241.427 6.33545C241.427 5.78316 240.979 5.33545 240.427 5.33545V7.33545ZM237.457 5.33545C236.905 5.33545 236.457 5.78316 236.457 6.33545C236.457 6.88773 236.905 7.33545 237.457 7.33545V5.33545ZM234.487 7.33545C235.039 7.33545 235.487 6.88773 235.487 6.33545C235.487 5.78316 235.039 5.33545 234.487 5.33545V7.33545ZM231.517 5.33545C230.965 5.33545 230.517 5.78316 230.517 6.33545C230.517 6.88773 230.965 7.33545 231.517 7.33545V5.33545ZM228.548 7.33545C229.1 7.33545 229.548 6.88773 229.548 6.33545C229.548 5.78316 229.1 5.33545 228.548 5.33545V7.33545ZM225.578 5.33545C225.025 5.33545 224.578 5.78316 224.578 6.33545C224.578 6.88773 225.025 7.33545 225.578 7.33545V5.33545ZM222.608 7.33545C223.16 7.33545 223.608 6.88773 223.608 6.33545C223.608 5.78316 223.16 5.33545 222.608 5.33545V7.33545ZM219.638 5.33545C219.086 5.33545 218.638 5.78316 218.638 6.33545C218.638 6.88773 219.086 7.33545 219.638 7.33545V5.33545ZM216.668 7.33545C217.221 7.33545 217.668 6.88773 217.668 6.33545C217.668 5.78316 217.221 5.33545 216.668 5.33545V7.33545ZM213.699 5.33545C213.146 5.33545 212.699 5.78316 212.699 6.33545C212.699 6.88773 213.146 7.33545 213.699 7.33545V5.33545ZM210.729 7.33545C211.281 7.33545 211.729 6.88773 211.729 6.33545C211.729 5.78316 211.281 5.33545 210.729 5.33545V7.33545ZM207.759 5.33545C207.207 5.33545 206.759 5.78316 206.759 6.33545C206.759 6.88773 207.207 7.33545 207.759 7.33545V5.33545ZM204.789 7.33545C205.342 7.33545 205.789 6.88773 205.789 6.33545C205.789 5.78316 205.342 5.33545 204.789 5.33545V7.33545ZM201.82 5.33545C201.267 5.33545 200.82 5.78316 200.82 6.33545C200.82 6.88773 201.267 7.33545 201.82 7.33545V5.33545ZM198.85 7.33545C199.402 7.33545 199.85 6.88773 199.85 6.33545C199.85 5.78316 199.402 5.33545 198.85 5.33545V7.33545ZM195.88 5.33545C195.328 5.33545 194.88 5.78316 194.88 6.33545C194.88 6.88773 195.328 7.33545 195.88 7.33545V5.33545ZM192.91 7.33545C193.463 7.33545 193.91 6.88773 193.91 6.33545C193.91 5.78316 193.463 5.33545 192.91 5.33545V7.33545ZM189.941 5.33545C189.388 5.33545 188.941 5.78316 188.941 6.33545C188.941 6.88773 189.388 7.33545 189.941 7.33545V5.33545ZM186.971 7.33545C187.523 7.33545 187.971 6.88773 187.971 6.33545C187.971 5.78316 187.523 5.33545 186.971 5.33545V7.33545ZM184.001 5.33545C183.449 5.33545 183.001 5.78316 183.001 6.33545C183.001 6.88773 183.449 7.33545 184.001 7.33545V5.33545ZM181.031 7.33545C181.584 7.33545 182.031 6.88773 182.031 6.33545C182.031 5.78316 181.584 5.33545 181.031 5.33545V7.33545ZM178.062 5.33545C177.509 5.33545 177.062 5.78316 177.062 6.33545C177.062 6.88773 177.509 7.33545 178.062 7.33545V5.33545ZM175.092 7.33545C175.644 7.33545 176.092 6.88773 176.092 6.33545C176.092 5.78316 175.644 5.33545 175.092 5.33545V7.33545ZM172.122 5.33545C171.57 5.33545 171.122 5.78316 171.122 6.33545C171.122 6.88773 171.57 7.33545 172.122 7.33545V5.33545ZM169.152 7.33545C169.705 7.33545 170.152 6.88773 170.152 6.33545C170.152 5.78316 169.705 5.33545 169.152 5.33545V7.33545ZM166.183 5.33545C165.63 5.33545 165.183 5.78316 165.183 6.33545C165.183 6.88773 165.63 7.33545 166.183 7.33545V5.33545ZM163.213 7.33545C163.765 7.33545 164.213 6.88773 164.213 6.33545C164.213 5.78316 163.765 5.33545 163.213 5.33545V7.33545ZM160.243 5.33545C159.691 5.33545 159.243 5.78316 159.243 6.33545C159.243 6.88773 159.691 7.33545 160.243 7.33545V5.33545ZM157.273 7.33545C157.826 7.33545 158.273 6.88773 158.273 6.33545C158.273 5.78316 157.826 5.33545 157.273 5.33545V7.33545ZM154.303 5.33545C153.751 5.33545 153.303 5.78316 153.303 6.33545C153.303 6.88773 153.751 7.33545 154.303 7.33545V5.33545ZM151.334 7.33545C151.886 7.33545 152.334 6.88773 152.334 6.33545C152.334 5.78316 151.886 5.33545 151.334 5.33545V7.33545ZM148.364 5.33545C147.812 5.33545 147.364 5.78316 147.364 6.33545C147.364 6.88773 147.812 7.33545 148.364 7.33545V5.33545ZM145.394 7.33545C145.946 7.33545 146.394 6.88773 146.394 6.33545C146.394 5.78316 145.946 5.33545 145.394 5.33545V7.33545ZM142.424 5.33545C141.872 5.33545 141.424 5.78316 141.424 6.33545C141.424 6.88773 141.872 7.33545 142.424 7.33545V5.33545ZM139.455 7.33545C140.007 7.33545 140.455 6.88773 140.455 6.33545C140.455 5.78316 140.007 5.33545 139.455 5.33545V7.33545ZM136.485 5.33545C135.933 5.33545 135.485 5.78316 135.485 6.33545C135.485 6.88773 135.933 7.33545 136.485 7.33545V5.33545ZM133.515 7.33545C134.067 7.33545 134.515 6.88773 134.515 6.33545C134.515 5.78316 134.067 5.33545 133.515 5.33545V7.33545ZM130.545 5.33545C129.993 5.33545 129.545 5.78316 129.545 6.33545C129.545 6.88773 129.993 7.33545 130.545 7.33545V5.33545ZM127.576 7.33545C128.128 7.33545 128.576 6.88773 128.576 6.33545C128.576 5.78316 128.128 5.33545 127.576 5.33545V7.33545ZM124.606 5.33545C124.054 5.33545 123.606 5.78316 123.606 6.33545C123.606 6.88773 124.054 7.33545 124.606 7.33545V5.33545ZM121.636 7.33545C122.188 7.33545 122.636 6.88773 122.636 6.33545C122.636 5.78316 122.188 5.33545 121.636 5.33545V7.33545ZM118.666 5.33545C118.114 5.33545 117.666 5.78316 117.666 6.33545C117.666 6.88773 118.114 7.33545 118.666 7.33545V5.33545ZM115.697 7.33545C116.249 7.33545 116.697 6.88773 116.697 6.33545C116.697 5.78316 116.249 5.33545 115.697 5.33545V7.33545ZM112.727 5.33545C112.174 5.33545 111.727 5.78316 111.727 6.33545C111.727 6.88773 112.174 7.33545 112.727 7.33545V5.33545ZM109.757 7.33545C110.309 7.33545 110.757 6.88773 110.757 6.33545C110.757 5.78316 110.309 5.33545 109.757 5.33545V7.33545ZM106.787 5.33545C106.235 5.33545 105.787 5.78316 105.787 6.33545C105.787 6.88773 106.235 7.33545 106.787 7.33545V5.33545ZM103.818 7.33545C104.37 7.33545 104.818 6.88773 104.818 6.33545C104.818 5.78316 104.37 5.33545 103.818 5.33545V7.33545ZM100.848 5.33545C100.295 5.33545 99.8478 5.78316 99.8478 6.33545C99.8478 6.88773 100.295 7.33545 100.848 7.33545V5.33545ZM97.878 7.33545C98.4303 7.33545 98.878 6.88773 98.878 6.33545C98.878 5.78316 98.4303 5.33545 97.878 5.33545V7.33545ZM94.9082 5.33545C94.356 5.33545 93.9082 5.78316 93.9082 6.33545C93.9082 6.88773 94.356 7.33545 94.9082 7.33545V5.33545ZM91.9385 7.33545C92.4908 7.33545 92.9385 6.88773 92.9385 6.33545C92.9385 5.78316 92.4908 5.33545 91.9385 5.33545V7.33545ZM88.9687 5.33545C88.4164 5.33545 87.9687 5.78316 87.9687 6.33545C87.9687 6.88773 88.4164 7.33545 88.9687 7.33545V5.33545ZM85.999 7.33545C86.5512 7.33545 86.999 6.88773 86.999 6.33545C86.999 5.78316 86.5512 5.33545 85.999 5.33545V7.33545ZM83.0292 5.33545C82.4769 5.33545 82.0292 5.78316 82.0292 6.33545C82.0292 6.88773 82.4769 7.33545 83.0292 7.33545V5.33545ZM80.0595 7.33545C80.6117 7.33545 81.0595 6.88773 81.0595 6.33545C81.0595 5.78316 80.6117 5.33545 80.0595 5.33545V7.33545ZM77.0897 5.33545C76.5374 5.33545 76.0897 5.78316 76.0897 6.33545C76.0897 6.88773 76.5374 7.33545 77.0897 7.33545V5.33545ZM74.1199 7.33545C74.6722 7.33545 75.1199 6.88773 75.1199 6.33545C75.1199 5.78316 74.6722 5.33545 74.1199 5.33545V7.33545ZM71.1502 5.33545C70.5979 5.33545 70.1502 5.78316 70.1502 6.33545C70.1502 6.88773 70.5979 7.33545 71.1502 7.33545V5.33545ZM68.1804 7.33545C68.7327 7.33545 69.1804 6.88773 69.1804 6.33545C69.1804 5.78316 68.7327 5.33545 68.1804 5.33545V7.33545ZM65.2107 5.33545C64.6584 5.33545 64.2107 5.78316 64.2107 6.33545C64.2107 6.88773 64.6584 7.33545 65.2107 7.33545V5.33545ZM62.2409 7.33545C62.7932 7.33545 63.2409 6.88773 63.2409 6.33545C63.2409 5.78316 62.7932 5.33545 62.2409 5.33545V7.33545ZM59.2711 5.33545C58.7189 5.33545 58.2711 5.78316 58.2711 6.33545C58.2711 6.88773 58.7189 7.33545 59.2711 7.33545V5.33545ZM56.3014 7.33545C56.8537 7.33545 57.3014 6.88773 57.3014 6.33545C57.3014 5.78316 56.8537 5.33545 56.3014 5.33545V7.33545ZM53.3316 5.33545C52.7793 5.33545 52.3316 5.78316 52.3316 6.33545C52.3316 6.88773 52.7793 7.33545 53.3316 7.33545V5.33545ZM50.3619 7.33545C50.9142 7.33545 51.3619 6.88773 51.3619 6.33545C51.3619 5.78316 50.9142 5.33545 50.3619 5.33545V7.33545ZM47.3921 5.33545C46.8398 5.33545 46.3921 5.78316 46.3921 6.33545C46.3921 6.88773 46.8398 7.33545 47.3921 7.33545V5.33545ZM44.4224 7.33545C44.9747 7.33545 45.4224 6.88773 45.4224 6.33545C45.4224 5.78316 44.9747 5.33545 44.4224 5.33545V7.33545ZM41.4526 5.33545C40.9003 5.33545 40.4526 5.78316 40.4526 6.33545C40.4526 6.88773 40.9003 7.33545 41.4526 7.33545V5.33545ZM38.4828 7.33545C39.0351 7.33545 39.4828 6.88773 39.4828 6.33545C39.4828 5.78316 39.0351 5.33545 38.4828 5.33545V7.33545ZM35.5131 5.33545C34.9608 5.33545 34.5131 5.78316 34.5131 6.33545C34.5131 6.88773 34.9608 7.33545 35.5131 7.33545V5.33545ZM32.5433 7.33545C33.0956 7.33545 33.5433 6.88773 33.5433 6.33545C33.5433 5.78316 33.0956 5.33545 32.5433 5.33545V7.33545ZM29.5736 5.33545C29.0213 5.33545 28.5736 5.78316 28.5736 6.33545C28.5736 6.88773 29.0213 7.33545 29.5736 7.33545V5.33545ZM26.6038 7.33545C27.1561 7.33545 27.6038 6.88773 27.6038 6.33545C27.6038 5.78316 27.1561 5.33545 26.6038 5.33545V7.33545ZM24.6411 5.45694C24.156 5.72078 23.9765 6.32799 24.2404 6.81318C24.5042 7.29836 25.1114 7.4778 25.5966 7.21396L24.6411 5.45694ZM26.108 6.48237C26.1892 5.93608 25.8121 5.42745 25.2658 5.34631C24.7195 5.26517 24.2109 5.64226 24.1297 6.18855L26.108 6.48237ZM24.1189 6.33547C24.1189 6.8193 24.1039 7.29907 24.0745 7.77426L26.0707 7.89787C26.1026 7.38154 26.1189 6.86054 26.1189 6.33547H24.1189ZM23.7175 10.6242C23.5363 11.5769 23.296 12.5047 23.0013 13.4026L24.9015 14.0263C25.2231 13.0466 25.485 12.0353 25.6823 10.9979L23.7175 10.6242ZM21.93 16.0605C21.5105 16.9295 21.0368 17.7602 20.5142 18.547L22.1801 19.6537C22.7535 18.7904 23.2724 17.8804 23.7312 16.9299L21.93 16.0605ZM18.7704 20.8084C18.1321 21.524 17.4473 22.1862 16.7221 22.789L18.0004 24.3271C18.8035 23.6597 19.5596 22.9282 20.2629 22.1398L18.7704 20.8084ZM14.4032 24.4294C13.5887 24.9137 12.7386 25.3304 11.8586 25.6733L12.5848 27.5368C13.5695 27.1531 14.5185 26.6877 15.4254 26.1484L14.4032 24.4294ZM9.14807 26.4719C8.68835 26.5655 8.22261 26.6397 7.75151 26.6938L7.97979 28.6808C8.50841 28.62 9.03105 28.5367 9.54688 28.4318L9.14807 26.4719ZM7.75151 26.6938C7.36925 26.7378 7.00381 26.8462 6.6696 27.0083L7.54225 28.8079C7.67704 28.7425 7.82493 28.6986 7.97979 28.6808L7.75151 26.6938ZM5.10319 28.6403C4.953 28.9983 4.86963 29.3904 4.86963 29.8013H6.86963C6.86963 29.6633 6.89722 29.5338 6.94748 29.414L5.10319 28.6403ZM4.86963 29.8013V31.3112H6.86963V29.8013H4.86963ZM4.86963 34.3311V37.351H6.86963V34.3311H4.86963ZM4.86963 40.3709V43.3907H6.86963V40.3709H4.86963ZM4.86963 46.4106V49.4305H6.86963V46.4106H4.86963ZM4.86963 52.4503V55.4702H6.86963V52.4503H4.86963ZM4.86963 58.4901V61.5099H6.86963V58.4901H4.86963ZM4.86963 64.5298V67.5497H6.86963V64.5298H4.86963ZM4.86963 70.5696V73.5894H6.86963V70.5696H4.86963ZM4.86963 76.6093V79.6292H6.86963V76.6093H4.86963ZM4.86963 82.649V85.6689H6.86963V82.649H4.86963ZM4.86963 88.6888V90.1987H6.86963V88.6888H4.86963ZM4.86963 90.1987C4.86963 90.6097 4.953 91.0017 5.10319 91.3597L6.94748 90.5861C6.89722 90.4662 6.86963 90.3367 6.86963 90.1987H4.86963ZM6.6696 92.9917C7.00382 93.1538 7.36925 93.2623 7.75152 93.3062L7.97979 91.3193C7.82493 91.3015 7.67704 91.2575 7.54225 91.1922L6.6696 92.9917ZM7.75152 93.3062C8.19105 93.3567 8.62591 93.4247 9.05556 93.5096L9.44308 91.5475C8.96097 91.4522 8.47298 91.3759 7.97979 91.3193L7.75152 93.3062ZM11.5939 94.2261C12.4207 94.5323 13.2221 94.9034 13.9932 95.3342L14.9687 93.5883C14.1093 93.1081 13.2141 92.6934 12.2885 92.3506L11.5939 94.2261ZM16.2036 96.7956C16.9004 97.3337 17.5629 97.9251 18.1863 98.565L19.6189 97.1694C18.9311 96.4634 18.1985 95.8092 17.4259 95.2126L16.2036 96.7956ZM19.9116 100.595C20.4366 101.303 20.9202 102.052 21.3578 102.838L23.1048 101.864C22.6256 101.004 22.0953 100.182 21.5184 99.4037L19.9116 100.595ZM22.5094 105.25C22.8393 106.069 23.1226 106.917 23.3555 107.789L25.2878 107.273C25.034 106.322 24.7248 105.397 24.3644 104.503L22.5094 105.25ZM23.89 110.414C23.9526 110.854 24.0028 111.299 24.0399 111.748L26.0331 111.583C25.9927 111.095 25.9382 110.611 25.8701 110.133L23.89 110.414ZM24.0399 111.748C24.0722 112.137 24.1733 112.509 24.3314 112.849L26.145 112.006C26.0845 111.876 26.0455 111.733 26.0331 111.583L24.0399 111.748ZM25.9609 114.432C26.3183 114.582 26.7095 114.665 27.1189 114.665V112.665C26.981 112.665 26.8518 112.637 26.733 112.587L25.9609 114.432ZM27.1189 114.665H28.6172V112.665H27.1189V114.665ZM31.6139 114.665H34.6106V112.665H31.6139V114.665ZM37.6073 114.665H40.604V112.665H37.6073V114.665ZM43.6007 114.665H46.5974V112.665H43.6007V114.665ZM49.5941 114.665H52.5908V112.665H49.5941V114.665ZM55.5875 114.665H58.5842V112.665H55.5875V114.665ZM61.5809 114.665H64.5776V112.665H61.5809V114.665ZM67.5743 114.665H70.571V112.665H67.5743V114.665ZM73.5677 114.665H76.5644V112.665H73.5677V114.665ZM79.5611 114.665H82.5578V112.665H79.5611V114.665ZM85.5545 114.665H88.5512V112.665H85.5545V114.665ZM91.5479 114.665H94.5446V112.665H91.5479V114.665ZM97.5413 114.665H100.538V112.665H97.5413V114.665ZM103.535 114.665H106.531V112.665H103.535V114.665ZM109.528 114.665H112.525V112.665H109.528V114.665ZM115.521 114.665H118.518V112.665H115.521V114.665ZM121.515 114.665H124.512V112.665H121.515V114.665ZM127.508 114.665H130.505V112.665H127.508V114.665ZM133.502 114.665H136.498V112.665H133.502V114.665ZM139.495 114.665H142.492V112.665H139.495V114.665ZM145.488 114.665H148.485V112.665H145.488V114.665ZM151.482 114.665H154.479V112.665H151.482V114.665ZM157.475 114.665H160.472V112.665H157.475V114.665ZM163.469 114.665H166.465V112.665H163.469V114.665ZM169.462 114.665H172.459V112.665H169.462V114.665ZM175.455 114.665H178.452V112.665H175.455V114.665ZM181.449 114.665H184.446V112.665H181.449V114.665ZM187.442 114.665H190.439V112.665H187.442V114.665ZM193.436 114.665H196.432V112.665H193.436V114.665ZM199.429 114.665H202.426V112.665H199.429V114.665ZM205.423 114.665H208.419V112.665H205.423V114.665ZM211.416 114.665H214.413V112.665H211.416V114.665ZM217.409 114.665H220.406V112.665H217.409V114.665ZM223.403 114.665H226.399V112.665H223.403V114.665ZM229.396 114.665H232.393V112.665H229.396V114.665ZM235.39 114.665H238.386V112.665H235.39V114.665ZM241.383 114.665H242.881V112.665H241.383V114.665ZM242.881 114.665C243.291 114.665 243.682 114.582 244.039 114.432L243.267 112.587C243.148 112.637 243.019 112.665 242.881 112.665V114.665ZM245.669 112.849C245.827 112.509 245.928 112.137 245.96 111.748L243.967 111.583C243.955 111.733 243.916 111.876 243.855 112.006L245.669 112.849ZM245.96 111.748C245.997 111.299 246.047 110.854 246.11 110.414L244.13 110.133C244.062 110.611 244.007 111.095 243.967 111.583L245.96 111.748ZM246.645 107.789C246.877 106.917 247.161 106.069 247.491 105.25L245.636 104.503C245.275 105.397 244.966 106.322 244.712 107.273L246.645 107.789ZM248.642 102.838C249.08 102.052 249.563 101.303 250.089 100.595L248.482 99.4037C247.905 100.182 247.374 101.004 246.895 101.864L248.642 102.838ZM251.814 98.565C252.437 97.9251 253.1 97.3337 253.797 96.7956L252.574 95.2126C251.802 95.8091 251.069 96.4634 250.381 97.1694L251.814 98.565ZM256.007 95.3342C256.778 94.9034 257.579 94.5323 258.406 94.2261L257.712 92.3506C256.786 92.6934 255.891 93.1081 255.031 93.5883L256.007 95.3342ZM260.945 93.5095C261.374 93.4247 261.809 93.3567 262.249 93.3062L262.02 91.3193C261.527 91.3759 261.039 91.4522 260.557 91.5475L260.945 93.5095ZM262.249 93.3062C262.631 93.2623 262.996 93.1538 263.331 92.9917L262.458 91.1922C262.323 91.2575 262.175 91.3015 262.02 91.3193L262.249 93.3062ZM264.897 91.3597C265.047 91.0017 265.13 90.6097 265.13 90.1987H263.13C263.13 90.3367 263.103 90.4662 263.053 90.5861L264.897 91.3597ZM265.13 90.1987V88.6888H263.13V90.1987H265.13ZM265.13 85.6689V82.6491H263.13V85.6689H265.13ZM265.13 79.6292V76.6093H263.13V79.6292H265.13ZM265.13 73.5894V70.5696H263.13V73.5894H265.13ZM265.13 67.5497V64.5298H263.13V67.5497H265.13ZM265.13 61.51V58.4901H263.13V61.51H265.13ZM265.13 55.4702V52.4503H263.13V55.4702H265.13ZM265.13 49.4305V46.4106H263.13V49.4305H265.13ZM265.13 43.3907V40.3709H263.13V43.3907H265.13ZM265.13 37.351V34.3311H263.13V37.351H265.13ZM265.13 31.3112V29.8013H263.13V31.3112H265.13ZM265.13 29.8013C265.13 29.3904 265.047 28.9983 264.897 28.6403L263.053 29.414C263.103 29.5338 263.13 29.6633 263.13 29.8013H265.13ZM263.331 27.0083C262.996 26.8462 262.631 26.7378 262.249 26.6938L262.02 28.6808C262.175 28.6986 262.323 28.7425 262.458 28.8079L263.331 27.0083ZM262.249 26.6938C261.778 26.6397 261.312 26.5655 260.852 26.4719L260.453 28.4318C260.969 28.5367 261.492 28.62 262.02 28.6808L262.249 26.6938ZM258.141 25.6733C257.262 25.3304 256.411 24.9137 255.597 24.4294L254.575 26.1484C255.482 26.6877 256.431 27.1531 257.415 27.5368L258.141 25.6733ZM253.278 22.789C252.553 22.1862 251.868 21.524 251.23 20.8084L249.737 22.1398C250.44 22.9282 251.197 23.6597 252 24.3271L253.278 22.789ZM249.486 18.547C248.963 17.7602 248.49 16.9295 248.07 16.0605L246.269 16.9299C246.728 17.8804 247.247 18.7904 247.82 19.6537L249.486 18.547ZM246.999 13.4026C246.704 12.5047 246.464 11.5769 246.283 10.6242L244.318 10.9979C244.515 12.0353 244.777 13.0466 245.099 14.0263L246.999 13.4026ZM245.926 7.77426C245.896 7.29907 245.881 6.8193 245.881 6.33547H243.881C243.881 6.86055 243.897 7.38154 243.929 7.89787L245.926 7.77426ZM245.881 6.33547C245.881 6.20172 245.854 6.0717 245.805 5.95241L243.958 6.71851C243.908 6.59922 243.881 6.46921 243.881 6.33547H245.881ZM245.264 5.41172C245.145 5.36225 245.015 5.33545 244.881 5.33545V7.33545C244.747 7.33545 244.617 7.30865 244.498 7.25918L245.264 5.41172ZM244.881 5.33545H243.396V7.33545H244.881V5.33545ZM240.427 5.33545H237.457V7.33545H240.427V5.33545ZM234.487 5.33545H231.517V7.33545H234.487V5.33545ZM228.548 5.33545H225.578V7.33545H228.548V5.33545ZM222.608 5.33545H219.638V7.33545H222.608V5.33545ZM216.668 5.33545H213.699V7.33545H216.668V5.33545ZM210.729 5.33545H207.759V7.33545H210.729V5.33545ZM204.789 5.33545H201.82V7.33545H204.789V5.33545ZM198.85 5.33545H195.88V7.33545H198.85V5.33545ZM192.91 5.33545H189.941V7.33545H192.91V5.33545ZM186.971 5.33545H184.001V7.33545H186.971V5.33545ZM181.031 5.33545H178.062V7.33545H181.031V5.33545ZM175.092 5.33545H172.122V7.33545H175.092V5.33545ZM169.152 5.33545H166.183V7.33545H169.152V5.33545ZM163.213 5.33545H160.243V7.33545H163.213V5.33545ZM157.273 5.33545H154.303V7.33545H157.273V5.33545ZM151.334 5.33545H148.364V7.33545H151.334V5.33545ZM145.394 5.33545H142.424V7.33545H145.394V5.33545ZM139.455 5.33545H136.485V7.33545H139.455V5.33545ZM133.515 5.33545H130.545V7.33545H133.515V5.33545ZM127.576 5.33545H124.606V7.33545H127.576V5.33545ZM121.636 5.33545H118.666V7.33545H121.636V5.33545ZM115.697 5.33545H112.727V7.33545H115.697V5.33545ZM109.757 5.33545H106.787V7.33545H109.757V5.33545ZM103.818 5.33545H100.848V7.33545H103.818V5.33545ZM97.878 5.33545H94.9082V7.33545H97.878V5.33545ZM91.9385 5.33545H88.9687V7.33545H91.9385V5.33545ZM85.999 5.33545H83.0292V7.33545H85.999V5.33545ZM80.0595 5.33545H77.0897V7.33545H80.0595V5.33545ZM74.1199 5.33545H71.1502V7.33545H74.1199V5.33545ZM68.1804 5.33545H65.2107V7.33545H68.1804V5.33545ZM62.2409 5.33545H59.2711V7.33545H62.2409V5.33545ZM56.3014 5.33545H53.3316V7.33545H56.3014V5.33545ZM50.3619 5.33545H47.3921V7.33545H50.3619V5.33545ZM44.4224 5.33545H41.4526V7.33545H44.4224V5.33545ZM38.4828 5.33545H35.5131V7.33545H38.4828V5.33545ZM32.5433 5.33545H29.5736V7.33545H32.5433V5.33545ZM26.6038 5.33545H25.1189V7.33545H26.6038V5.33545ZM25.1189 5.33545C24.9855 5.33545 24.8146 5.36261 24.6411 5.45694L25.5966 7.21396C25.4231 7.30829 25.2523 7.33545 25.1189 7.33545V5.33545ZM24.1297 6.18855C24.1205 6.25071 24.1189 6.30218 24.1189 6.33547H26.1189C26.1189 6.36875 26.1173 6.42021 26.108 6.48237L24.1297 6.18855Z" fill="black" fill-opacity="0.35" mask="url(#path-2-inside-1_1004_21)"/>
<line x1="200.5" y1="8" x2="200.5" y2="112" stroke="black" stroke-opacity="0.35" stroke-dasharray="3 3"/>
<path d="M27.8602 57V38.3977H33.122V52.8278H41.998V57H27.8602ZM53.1756 57.372C51.6874 57.372 50.3143 57.1329 49.0565 56.6545C47.7986 56.1762 46.7002 55.503 45.7612 54.6349C44.8399 53.749 44.1224 52.7215 43.6087 51.5522C43.0949 50.3829 42.838 49.0985 42.838 47.6988C42.838 46.2992 43.0949 45.0148 43.6087 43.8455C44.1224 42.6762 44.8399 41.6575 45.7612 40.7894C46.7002 39.9036 47.7986 39.2215 49.0565 38.7432C50.3143 38.2648 51.6874 38.0257 53.1756 38.0257C54.6815 38.0257 56.0545 38.2648 57.2946 38.7432C58.5525 39.2215 59.6421 39.9036 60.5633 40.7894C61.4846 41.6575 62.2021 42.6762 62.7159 43.8455C63.2474 45.0148 63.5131 46.2992 63.5131 47.6988C63.5131 49.0985 63.2474 50.3918 62.7159 51.5788C62.2021 52.748 61.4846 53.7667 60.5633 54.6349C59.6421 55.503 58.5525 56.1762 57.2946 56.6545C56.0545 57.1329 54.6815 57.372 53.1756 57.372ZM53.1756 53.0138C53.8842 53.0138 54.5397 52.8898 55.1421 52.6417C55.7622 52.3937 56.2937 52.0394 56.7366 51.5788C57.1972 51.1004 57.5515 50.5335 57.7996 49.878C58.0653 49.2225 58.1982 48.4961 58.1982 47.6988C58.1982 46.8839 58.0653 46.1575 57.7996 45.5197C57.5515 44.8642 57.1972 44.3061 56.7366 43.8455C56.2937 43.3672 55.7622 43.004 55.1421 42.756C54.5397 42.5079 53.8842 42.3839 53.1756 42.3839C52.4669 42.3839 51.8025 42.5079 51.1824 42.756C50.5801 43.004 50.0486 43.3672 49.588 43.8455C49.1451 44.3061 48.7907 44.8642 48.525 45.5197C48.2769 46.1575 48.1529 46.8839 48.1529 47.6988C48.1529 48.4961 48.2769 49.2225 48.525 49.878C48.7907 50.5335 49.1451 51.1004 49.588 51.5788C50.0486 52.0394 50.5801 52.3937 51.1824 52.6417C51.8025 52.8898 52.4669 53.0138 53.1756 53.0138ZM69.9691 57V42.5699H64.2555V38.3977H80.9179V42.5699H75.2309V57H69.9691ZM87.0973 57V42.5699H81.3838V38.3977H98.0461V42.5699H92.3591V57H87.0973ZM104.843 45.5994H113.48V49.5325H104.843V45.5994ZM105.215 52.9341H114.941V57H100.006V38.3977H114.596V42.4636H105.215V52.9341ZM117.861 57V38.3977H126.365C128.066 38.3977 129.528 38.6723 130.75 39.2215C131.99 39.7707 132.947 40.568 133.62 41.6132C134.293 42.6408 134.63 43.8632 134.63 45.2806C134.63 46.6802 134.293 47.8937 133.62 48.9213C132.947 49.9311 131.99 50.7107 130.75 51.2599C129.528 51.7914 128.066 52.0571 126.365 52.0571H120.785L123.123 49.8514V57H117.861ZM129.368 57L124.744 50.2234H130.351L135.002 57H129.368ZM123.123 50.4095L120.785 47.9912H126.046C127.145 47.9912 127.96 47.752 128.491 47.2737C129.04 46.7953 129.315 46.1309 129.315 45.2806C129.315 44.4124 129.04 43.7392 128.491 43.2609C127.96 42.7825 127.145 42.5434 126.046 42.5434H120.785L123.123 40.1251V50.4095ZM141.977 57V49.1339L143.199 52.2963L134.882 38.3977H140.436L146.442 48.4695H143.226L149.259 38.3977H154.361L146.07 52.2963L147.239 49.1339V57H141.977ZM33.3604 84V65.7502H26.1344V60.4736H47.2074V65.7502H40.015V84H33.3604ZM49.6866 84V60.4736H56.3412V84H49.6866ZM72.8053 84.4705C70.9456 84.4705 69.2203 84.1792 67.6295 83.5967C66.061 82.9917 64.6942 82.1403 63.5291 81.0424C62.3864 79.9445 61.4902 78.6561 60.8404 77.1773C60.1906 75.6761 59.8657 74.0293 59.8657 72.2368C59.8657 70.4443 60.1906 68.8086 60.8404 67.3298C61.4902 65.8286 62.3864 64.5291 63.5291 63.4312C64.6942 62.3333 66.061 61.493 67.6295 60.9105C69.2203 60.3055 70.9456 60.003 72.8053 60.003C74.9787 60.003 76.9168 60.3839 78.6197 61.1457C80.3449 61.9076 81.7789 63.0055 82.9216 64.4394L78.6869 68.2709C77.9251 67.3747 77.0848 66.6913 76.1662 66.2207C75.2699 65.7502 74.2617 65.5149 73.1414 65.5149C72.1779 65.5149 71.2929 65.6718 70.4862 65.9855C69.6796 66.2992 68.985 66.7585 68.4025 67.3634C67.8423 67.946 67.3942 68.6518 67.0581 69.4808C66.7444 70.3099 66.5876 71.2285 66.5876 72.2368C66.5876 73.2451 66.7444 74.1637 67.0581 74.9927C67.3942 75.8218 67.8423 76.5388 68.4025 77.1437C68.985 77.7263 69.6796 78.1744 70.4862 78.4881C71.2929 78.8018 72.1779 78.9586 73.1414 78.9586C74.2617 78.9586 75.2699 78.7234 76.1662 78.2528C77.0848 77.7823 77.9251 77.0989 78.6869 76.2027L82.9216 80.0341C81.7789 81.4457 80.3449 82.5436 78.6197 83.3278C76.9168 84.0896 74.9787 84.4705 72.8053 84.4705ZM91.8375 78.7906L91.4678 71.3293L101.584 60.4736H108.911L98.8282 71.3966L95.1312 75.2616L91.8375 78.7906ZM85.8887 84V60.4736H92.4761V84H85.8887ZM101.685 84L94.0221 74.2869L98.3577 69.6489L109.415 84H101.685ZM117.278 69.5817H128.201V74.5558H117.278V69.5817ZM117.749 78.8578H130.05V84H111.161V60.4736H129.613V65.6158H117.749V78.8578ZM138.75 84V65.7502H131.524V60.4736H152.597V65.7502H145.405V84H138.75Z" fill="black" fill-opacity="0.79"/>
</svg>
